<svg version="1.1" id="Layer_1" xmlns="http://www.w3.org/2000/svg" xmlns:xlink="http://www.w3.org/1999/xlink" x="0px" y="0px"
	 width="100%" viewBox="0 0 1088 960" enable-background="new 0 0 1088 960" xml:space="preserve">
<path fill="#FEFFFF" opacity="1.000000" stroke="none" 
	d="
M736.000000,961.000000 
	C490.696533,961.000000 245.893051,961.000000 1.044787,961.000000 
	C1.044787,641.068909 1.044787,321.137756 1.044787,1.103323 
	C363.553528,1.103323 726.107056,1.103323 1088.830322,1.103323 
	C1088.830322,320.999939 1088.830322,640.999939 1088.830322,961.000000 
	C971.470947,961.000000 853.985474,961.000000 736.000000,961.000000 
M395.269928,435.744415 
	C390.682953,435.744415 386.095947,435.744415 381.508972,435.744415 
	C381.278259,436.241760 381.047546,436.739136 380.816833,437.236481 
	C383.324188,440.087616 385.831543,442.938721 387.998505,445.402771 
	C390.551056,443.346313 392.791473,441.541321 395.855988,439.760468 
	C408.319916,439.604370 421.028442,437.816010 433.195831,439.639038 
	C457.008301,443.206879 480.678894,448.117462 504.116455,453.697540 
	C538.331360,461.843628 572.509521,469.958954 607.807739,471.359741 
	C619.691406,471.831329 631.629456,470.932190 643.542664,470.659576 
	C643.633240,470.234222 643.723816,469.808868 643.814392,469.383545 
	C638.490784,467.412567 635.621460,463.673798 635.838623,457.780151 
	C633.115051,457.780151 630.970947,457.886719 628.840149,457.763458 
	C610.245911,456.687744 591.353577,457.284546 573.128174,454.087158 
	C541.365356,448.514862 509.996216,440.676605 478.496185,433.635468 
	C455.526459,428.501068 432.472260,424.406982 408.776245,425.141235 
	C404.869537,425.262299 402.881531,426.645844 401.220184,430.020111 
	C400.095093,432.305359 397.782104,434.005676 395.269928,435.744415 
M355.925049,269.114929 
	C352.440857,270.281616 349.003662,271.628479 345.456512,272.553925 
	C342.937622,273.211121 339.902008,274.262146 337.747681,273.437531 
	C333.535156,271.825134 332.022034,274.386902 330.126862,276.852509 
	C329.675903,277.439240 329.431885,278.864716 329.200623,278.841248 
	C323.611694,278.273560 325.050812,283.993347 322.631104,286.250854 
	C321.815033,287.012177 322.026733,288.875122 321.697296,290.610992 
	C323.484039,290.273682 324.542725,290.073822 324.520569,290.078003 
	C326.115631,293.288055 327.483521,296.040863 328.851410,298.793701 
	C329.035034,298.619446 329.218658,298.445190 329.402283,298.270966 
	C329.609985,299.673035 329.817719,301.075134 330.025452,302.477234 
	C331.191345,302.242889 332.393188,302.117889 333.514771,301.748840 
	C335.247162,301.178833 336.906738,300.391296 338.628021,299.783264 
	C367.066071,289.737061 396.226990,288.299622 425.840698,292.583496 
	C462.483246,297.884094 496.013000,311.795166 527.679382,330.362000 
	C546.619202,341.466888 564.969543,353.575409 583.648071,365.130615 
	C585.191406,366.085419 587.529480,367.148682 588.974182,366.648315 
	C600.063782,362.807770 607.885498,355.037170 614.493286,344.949188 
	C611.715149,344.152313 609.668213,343.562317 607.619690,342.978027 
	C559.066895,329.128998 513.589233,308.763245 472.334015,279.366547 
	C471.050690,278.452118 468.635620,278.385162 466.994598,278.830688 
	C453.917969,282.380920 440.778656,283.228088 427.450500,280.499451 
	C411.206055,277.173737 397.799835,269.072815 386.863159,256.687378 
	C385.360382,254.985565 383.451538,253.642288 381.911499,252.291626 
	C380.212769,253.335510 378.965485,254.101974 377.310883,255.118729 
	C376.239624,253.541840 375.246643,252.080200 374.199036,250.538116 
	C372.223236,252.357300 370.892303,253.582764 369.323456,255.027267 
	C369.055511,253.777771 368.838989,252.768066 368.570984,251.518219 
	C363.583527,255.577469 358.826202,259.449402 354.919739,262.628815 
	C356.081696,265.184296 356.837585,266.846710 357.047302,268.979095 
	C356.877289,269.148712 356.707245,269.318329 355.925049,269.114929 
M586.427490,409.988495 
	C603.958069,416.593262 621.858337,421.588531 640.729492,422.151764 
	C642.361145,422.200500 644.732910,421.860535 645.536987,420.785675 
	C648.265869,417.137482 650.445129,413.078217 652.780518,409.263947 
	C652.191162,408.714783 651.988831,408.368347 651.710449,408.289307 
	C628.741150,401.764557 608.107727,390.322479 587.821289,378.111145 
	C586.416199,377.265350 584.351624,376.924866 582.708740,377.158417 
	C570.557922,378.885895 558.706787,377.609711 547.333008,373.236450 
	C529.168884,366.252289 511.211761,358.729706 493.047974,351.744690 
	C485.643127,348.897095 477.926788,346.859467 469.920410,344.316162 
	C470.614044,341.695068 471.227875,339.375549 471.887115,336.884369 
	C473.456146,337.134674 474.624969,337.165161 475.688812,337.514893 
	C486.745270,341.149811 497.912445,344.496613 508.798126,348.590271 
	C523.891235,354.266235 538.660461,360.810333 553.793945,366.368530 
	C559.687012,368.532928 566.193359,369.027405 572.420349,370.282562 
	C572.793396,369.591187 573.166382,368.899841 573.539429,368.208466 
	C572.903137,368.031342 572.186523,367.986969 571.642090,367.657959 
	C550.140015,354.663574 529.275940,340.448486 507.040222,328.866058 
	C454.792755,301.650604 400.142029,289.262238 341.721832,307.120941 
	C338.115234,308.223450 334.778656,309.066772 334.459534,314.866943 
	C336.485779,313.195770 337.860840,312.061646 339.235931,310.927521 
	C339.604767,311.178375 339.973633,311.429260 340.342499,311.680115 
	C338.856354,313.929047 337.370209,316.177979 335.448517,319.086029 
	C338.171173,318.668427 340.017548,318.385223 342.972809,317.931946 
	C332.603790,326.672638 331.328461,329.767578 334.115417,336.261047 
	C341.414398,332.564789 348.763123,328.843323 355.443756,325.460175 
	C356.967560,327.856415 357.964569,329.424255 359.199097,331.365631 
	C354.394073,334.770752 354.747101,338.460602 360.455597,341.682281 
	C369.292023,335.857269 369.292023,335.857269 370.996063,339.624603 
	C374.022766,338.279602 377.186737,336.843384 379.188446,341.375305 
	C383.493347,337.888763 390.701294,340.617584 392.268707,333.962189 
	C399.614380,333.962189 406.608521,333.844421 413.588501,334.105408 
	C414.501312,334.139557 416.000885,336.068024 416.087311,337.205780 
	C416.315216,340.206268 415.915100,343.254395 415.826965,345.033478 
	C419.783508,346.272156 423.976654,346.375580 425.408508,348.416382 
	C426.551086,350.044800 424.328857,354.034058 423.551422,357.172333 
	C455.320312,354.863403 484.916046,363.466156 513.540833,376.778809 
	C537.514404,387.928314 561.640076,398.750580 586.427490,409.988495 
M523.052368,270.925964 
	C516.040710,267.461548 509.181702,262.657532 501.115692,268.455872 
	C500.903564,268.608368 500.485352,268.497101 500.165802,268.473846 
	C492.784760,267.937012 486.004150,269.465851 479.619598,274.118073 
	C481.227295,275.312561 482.374481,276.236450 483.590698,277.058197 
	C524.072388,304.409271 568.235718,323.615601 615.188477,336.719269 
	C618.621765,337.677460 619.962036,336.078979 620.669922,333.590912 
	C623.299561,324.347473 626.002991,315.106201 628.087524,305.732666 
	C629.698486,298.488586 623.674500,293.531738 616.495361,295.972290 
	C613.142334,297.112122 611.319824,295.960022 609.243286,293.556244 
	C607.659973,291.723480 605.350708,290.512360 603.344910,289.051361 
	C599.472839,286.230927 592.158447,289.262390 591.343445,280.653717 
	C589.707397,283.098785 588.682739,284.630096 587.658081,286.161377 
	C587.203613,286.123413 586.749207,286.085419 586.294800,286.047455 
	C586.222290,284.559875 585.690308,282.907440 586.154907,281.612549 
	C588.463989,275.176697 586.800903,273.190247 579.897888,273.889191 
	C578.482544,274.032501 576.806946,272.685608 575.432983,271.756836 
	C574.587097,271.185059 574.085754,270.103821 573.429565,269.251129 
	C563.472534,274.922089 554.167236,275.143860 544.492371,268.983978 
	C542.128418,267.478882 536.737976,267.503448 534.830627,269.190063 
	C531.096741,272.491791 527.578003,270.980927 523.052368,270.925964 
M565.403381,498.246399 
	C548.512878,493.168762 531.645447,488.011383 514.705261,483.105316 
	C512.354065,482.424377 509.378113,482.261261 507.142853,483.084442 
	C492.295441,488.551880 478.944153,496.571564 467.458862,507.548309 
	C466.561584,508.405823 465.787018,509.391724 464.863892,510.419891 
	C484.406464,517.365295 503.505554,524.215881 522.649475,530.938904 
	C541.206299,537.455872 559.979309,543.104797 579.731445,544.756104 
	C582.794617,545.012207 584.718933,544.319214 586.913757,541.818542 
	C593.157104,534.705566 600.298157,529.124451 610.902893,530.748291 
	C613.875916,531.203552 617.123047,529.869141 620.244446,529.355713 
	C620.219482,528.726929 620.194519,528.098083 620.169617,527.469299 
	C606.670166,526.393494 593.076721,525.974548 579.697632,524.058533 
	C566.123474,522.114502 552.760986,518.692261 538.722290,515.797058 
	C539.929382,512.088989 540.663269,509.834503 541.523926,507.190765 
	C567.271606,514.381592 592.803284,519.257751 617.957703,518.719177 
	C620.690247,513.431458 622.914612,509.127045 625.577148,503.974792 
	C604.906250,504.593933 585.426331,502.786407 565.403381,498.246399 
M668.818848,346.704254 
	C682.445496,346.816803 696.103027,347.538971 709.689148,346.851013 
	C720.764404,346.290192 731.561340,344.269470 740.241699,335.627625 
	C747.061157,328.838318 747.786499,328.619720 743.872192,319.425842 
	C742.538452,316.293091 743.505249,314.186462 747.000000,313.334503 
	C748.313904,313.014130 749.514832,312.230225 750.322693,311.860870 
	C741.965637,301.680634 733.123169,303.055481 723.487061,309.384064 
	C717.776733,305.185669 711.904602,305.550293 705.358765,311.471161 
	C704.849548,310.684723 704.377747,309.813721 703.773254,309.047516 
	C701.297974,305.910095 696.373596,304.966156 692.760254,306.893280 
	C687.854980,309.509460 686.849243,309.246368 685.277710,304.226501 
	C683.894043,299.806854 682.314209,295.950958 676.520386,296.962555 
	C676.064148,297.042206 675.542358,296.851044 675.070068,296.718109 
	C668.977234,295.003174 662.887817,293.276001 656.621521,291.502075 
	C656.064148,294.121674 655.662903,296.007233 655.174255,298.303772 
	C651.821655,298.303772 648.099670,297.279205 645.564697,298.575653 
	C642.705994,300.037628 637.859253,296.654877 636.745972,302.596008 
	C634.433167,314.938629 631.569153,327.177979 628.742676,340.340240 
	C641.100525,342.306976 654.508240,344.440826 668.818848,346.704254 
M396.188049,448.710236 
	C393.911163,449.006531 391.634308,449.302826 389.357422,449.599152 
	C389.251007,450.127472 389.144592,450.655792 389.038177,451.184113 
	C392.217224,454.476471 395.396240,457.768799 399.799988,462.329529 
	C398.526367,464.420013 396.934479,468.771149 393.911987,471.586395 
	C389.380646,475.807037 390.513885,481.997894 387.357452,486.505219 
	C387.159637,486.787689 387.347656,487.750610 387.617096,487.888977 
	C392.355743,490.322571 391.709564,497.362427 400.149567,497.934204 
	C417.783722,499.128784 435.179169,503.714752 452.719177,506.627899 
	C454.557220,506.933197 457.059601,505.820984 458.651184,504.588409 
	C466.141296,498.787994 473.188324,492.393738 480.857391,486.853638 
	C486.010284,483.131226 491.937653,480.480896 497.887207,477.144135 
	C496.851959,476.626556 496.162262,476.216003 495.425751,475.923187 
	C481.510010,470.391083 467.725952,464.489227 453.634308,459.447418 
	C435.391235,452.920380 416.740448,447.936646 396.188049,448.710236 
M594.826965,424.922485 
	C578.035522,420.733307 561.221558,416.632111 544.457336,412.336517 
	C510.349518,403.596893 475.985962,396.472870 440.560486,396.715942 
	C429.303009,396.793182 418.052124,397.836365 408.839783,398.328461 
	C405.529327,404.418671 403.139618,408.815033 400.810944,413.099060 
	C400.631836,413.079651 401.090912,413.223419 401.521088,413.162598 
	C426.714233,409.602875 451.908447,409.180267 477.200806,412.379211 
	C507.184875,416.171509 536.171631,424.342224 565.447693,431.382507 
	C585.958435,436.314911 606.860413,439.631378 627.618835,443.502228 
	C629.280579,443.812073 632.057861,443.419800 632.815369,442.319916 
	C635.200806,438.856079 636.870300,434.899261 638.586304,431.579407 
	C624.174500,429.393097 609.918396,427.230408 594.826965,424.922485 
M675.492981,374.031372 
	C686.858948,369.384888 698.252808,364.804474 709.564697,360.029877 
	C711.556091,359.189301 713.204529,357.536133 715.011353,356.258240 
	C708.325012,355.556549 702.376770,356.067749 696.420044,356.202789 
	C673.306763,356.726776 650.618713,353.409393 628.169983,348.233582 
	C624.779297,347.451813 622.767090,347.694611 620.479553,351.030823 
	C616.944092,356.187073 612.488281,360.802429 607.944275,365.146698 
	C604.668945,368.277985 600.615173,370.594910 596.564819,373.523651 
	C600.693420,375.912109 604.404724,378.113770 608.166382,380.225616 
	C622.548706,388.300262 637.327393,395.478180 653.334656,399.790161 
	C654.685425,400.154022 656.659607,400.584351 657.533325,399.919006 
	C660.980835,397.293793 664.104736,394.243622 667.981079,390.787231 
	C665.432861,389.638855 663.130371,388.601166 660.387756,387.365143 
	C664.272278,382.024872 666.959290,375.478424 675.492981,374.031372 
M472.532227,522.045654 
	C468.757538,520.774231 464.962921,519.558472 461.214722,518.213257 
	C458.352814,517.186096 456.431427,517.809875 455.795410,520.161865 
	C471.060944,534.110291 486.084717,547.700623 500.919373,561.494385 
	C504.383972,564.715881 507.724121,566.749634 512.763245,566.260559 
	C515.912231,565.954895 519.215515,567.302124 522.458191,567.857300 
	C523.395325,568.017700 524.483215,568.325134 525.297241,568.019592 
	C534.014160,564.747986 542.517090,565.955322 549.661560,568.562134 
	C553.790771,566.390381 556.962280,563.643188 560.423645,563.209412 
	C563.797119,562.786682 567.467041,564.730469 571.705872,565.813843 
	C574.223389,562.503540 577.463562,558.243103 580.434570,554.336548 
	C566.216980,551.172668 552.675354,549.099976 539.742432,545.072510 
	C517.392700,538.112549 495.420898,529.939087 472.532227,522.045654 
M463.537537,537.978821 
	C459.283051,534.551453 455.028595,531.124084 450.537903,527.506470 
	C449.279694,529.388794 448.246735,530.881042 447.267334,532.407715 
	C437.580353,547.507019 433.162292,564.590576 429.165436,581.750427 
	C428.596375,584.193481 428.695160,588.732727 434.098358,588.376465 
	C435.396729,588.290833 436.885193,589.973694 438.167999,590.992188 
	C441.111023,593.328674 443.981171,595.756958 447.609314,598.748657 
	C451.064240,594.597900 454.434631,590.921814 457.367706,586.924805 
	C460.602509,582.516602 464.785248,578.600220 470.041168,579.354370 
	C477.139343,580.372681 481.480499,576.419067 484.653381,572.116150 
	C487.402863,568.387390 489.759613,566.805054 494.465393,566.989380 
	C484.335541,557.472046 474.205719,547.954712 463.537537,537.978821 
M535.166870,396.477112 
	C524.644043,391.512421 514.198242,386.376007 503.583344,381.616699 
	C476.584747,369.511566 448.508179,363.077209 418.701172,365.775421 
	C415.237549,366.088959 412.774200,367.036682 410.951294,370.091400 
	C409.422058,372.654083 407.399567,374.922485 405.730621,377.141510 
	C406.020294,380.069489 406.532440,383.219269 406.590485,386.377411 
	C406.654053,389.835632 407.798370,390.749268 411.441864,390.437622 
	C423.030853,389.446350 434.672516,388.337067 446.281738,388.455536 
	C479.261322,388.792084 511.383911,395.071320 543.107239,403.676147 
	C544.972290,404.182098 546.917236,404.393738 548.825073,404.742310 
	C548.954346,404.340546 549.083618,403.938751 549.212952,403.536957 
	C544.751160,401.299469 540.289429,399.061951 535.166870,396.477112 
M386.534393,514.184204 
	C384.691254,518.117920 382.728729,522.002808 381.085114,526.018250 
	C380.649597,527.082275 381.007660,528.596924 381.327728,529.819214 
	C382.082794,532.702332 383.118866,535.511780 383.873810,538.394958 
	C384.309082,540.057129 384.418549,541.804626 384.452454,542.030945 
	C390.385712,542.715088 395.808319,542.109680 400.012360,544.090515 
	C407.899109,547.806458 415.469299,552.588867 420.060486,560.561157 
	C420.807159,561.857727 421.569000,564.038391 420.990509,565.041321 
	C419.094727,568.327942 420.881592,569.359131 423.462067,570.646118 
	C427.071777,553.288452 434.075592,537.658875 443.330414,523.097412 
	C431.363281,513.496826 411.567474,506.243561 397.375946,506.128326 
	C394.047089,506.101288 391.121948,506.582428 390.028931,510.576599 
	C389.692505,511.805969 388.157776,512.707397 386.534393,514.184204 
M527.992126,682.500610 
	C527.992126,676.062073 527.992126,669.623474 527.992126,663.152710 
	C522.964783,663.152710 518.603210,663.152710 513.806519,663.152710 
	C513.806519,673.794739 513.806519,684.013123 513.806519,695.364014 
	C506.311096,686.101624 499.100861,678.060608 492.937195,669.284485 
	C488.463867,662.915222 483.161835,661.572815 476.273529,663.298523 
	C476.273529,681.827576 476.273529,700.356628 476.273529,718.660522 
	C480.981476,718.660522 485.234039,718.660522 490.121521,718.660522 
	C490.121521,708.323853 490.121521,698.343079 490.121521,687.132629 
	C497.632416,696.323181 504.841858,704.038147 510.702667,712.669006 
	C515.329651,719.482727 520.904663,719.907959 527.990723,718.487305 
	C527.990723,706.756409 527.990723,695.128357 527.992126,682.500610 
M371.470306,697.986877 
	C382.572876,686.230164 378.942108,668.087585 363.732666,664.608582 
	C352.481628,662.035156 340.488312,662.706726 328.734009,661.926514 
	C328.734009,681.751892 328.734009,700.166321 328.734009,718.720581 
	C333.368652,718.720581 337.756866,718.720581 342.849762,718.720581 
	C342.849762,713.565002 342.849762,708.682617 342.849762,703.628723 
	C352.979950,703.607178 362.663239,704.668152 371.470306,697.986877 
M637.118958,692.256165 
	C633.350891,683.746277 629.463013,675.286438 625.878723,666.699890 
	C624.597717,663.630859 622.904541,662.176270 619.528503,662.687073 
	C617.901184,662.933350 616.173950,662.947571 614.549500,662.695679 
	C611.117249,662.163391 609.511475,663.791809 608.220337,666.787659 
	C601.181641,683.118713 593.968628,699.374634 586.840332,715.667236 
	C586.423340,716.620300 586.222595,717.668030 585.822754,718.999756 
	C589.814514,718.999756 593.317261,719.204346 596.773804,718.894226 
	C598.067017,718.778198 600.167542,717.632202 600.345093,716.669189 
	C602.018188,707.596497 608.112183,706.449829 615.722229,707.519470 
	C617.518250,707.771912 619.413940,707.808533 621.201843,707.536804 
	C627.306519,706.608704 631.264893,708.506775 632.682251,714.986206 
	C633.016357,716.513489 634.816040,718.676880 636.157898,718.847534 
	C640.185303,719.359924 644.319580,719.032043 649.067383,719.032043 
	C644.989868,709.870728 641.221069,701.403015 637.118958,692.256165 
M388.985168,694.370850 
	C385.474609,702.401550 381.964081,710.432190 378.401886,718.580994 
	C391.199463,720.172791 391.117615,720.132019 396.080139,710.164734 
	C396.691620,708.936646 398.693634,707.793091 400.125977,707.694458 
	C404.596680,707.386475 409.161041,708.057861 413.582123,707.500671 
	C420.038177,706.686829 423.935211,708.652710 425.421570,715.280090 
	C425.747406,716.732849 427.687256,718.690918 429.082520,718.870178 
	C432.932617,719.364929 436.887909,719.041321 440.976776,719.041321 
	C440.803009,717.951599 440.824860,717.435974 440.638184,717.012146 
	C433.136108,699.979980 425.684875,682.924377 417.975464,665.986328 
	C417.296478,664.494446 415.041260,663.339783 413.284454,662.823303 
	C411.446564,662.282959 409.293671,662.931824 407.336945,662.651794 
	C403.937653,662.165466 402.245514,663.628540 400.978699,666.683960 
	C397.223907,675.740234 393.209259,684.688843 388.985168,694.370850 
M764.513184,688.875122 
	C768.051086,690.923401 771.401367,693.468628 775.174805,694.892944 
	C779.805359,696.640808 784.905334,697.133667 789.562134,698.828918 
	C791.346924,699.478760 793.845825,702.248718 793.569519,703.520264 
	C793.156860,705.419556 790.805481,707.798767 788.868103,708.264160 
	C785.582336,709.053406 781.848938,709.098145 778.535522,708.382507 
	C773.933044,707.388428 769.544495,705.403442 764.736206,703.728394 
	C763.454834,706.916931 762.072449,710.356934 760.581238,714.067749 
	C772.859863,720.443359 784.958374,722.532837 797.577209,717.466980 
	C804.550781,714.667480 808.267883,708.424500 807.923096,701.352722 
	C807.591736,694.555664 803.808655,690.075745 796.069641,687.735229 
	C792.256775,686.582092 788.269775,686.001709 784.463257,684.831482 
	C780.712158,683.678284 775.497375,683.786194 775.992371,677.731750 
	C776.259705,674.462219 781.119385,672.422913 786.979736,673.326111 
	C791.849426,674.076721 796.617310,675.487732 801.781311,676.687744 
	C802.594727,674.518555 803.356140,671.987122 804.480103,669.628357 
	C805.647949,667.177490 804.791260,665.845459 802.532959,665.029663 
	C792.567444,661.430176 782.457703,660.022705 772.325195,664.094910 
	C761.953796,668.263184 758.605042,678.435364 764.513184,688.875122 
M316.881714,693.758240 
	C313.200958,688.842468 307.699585,687.480286 302.155640,686.141846 
	C298.282806,685.206787 294.325775,684.422668 290.652679,682.954712 
	C289.172089,682.363037 287.456451,680.116394 287.473267,678.641541 
	C287.490662,677.118591 289.180115,675.001892 290.686890,674.260620 
	C292.664490,673.287903 295.260254,672.850037 297.446716,673.168091 
	C302.641815,673.923523 307.752502,675.259277 313.376740,676.463196 
	C314.454193,673.498291 315.671814,670.147644 317.070312,666.299316 
	C305.159210,661.042053 293.545959,659.419922 281.714813,665.112976 
	C279.700745,666.082092 277.893341,667.839661 276.470551,669.617188 
	C269.938385,677.778137 272.718933,689.282959 282.453033,693.182739 
	C287.814423,695.330566 293.742035,696.050842 299.140411,698.126953 
	C301.524933,699.043945 304.666046,701.548462 304.931763,703.652100 
	C305.427124,707.573608 301.447449,708.445129 298.271362,708.726135 
	C295.491608,708.972046 292.532196,708.989929 289.864288,708.294617 
	C285.303192,707.105835 280.908051,705.280457 276.284180,703.666931 
	C274.922119,706.929810 273.543427,710.232483 271.998444,713.933594 
	C283.931610,720.084534 295.885071,722.427185 308.376587,717.704468 
	C318.403076,713.913757 321.905792,704.078430 316.881714,693.758240 
M651.603088,685.248718 
	C649.335693,700.534485 656.541443,713.194397 670.368835,718.218628 
	C683.388611,722.949341 698.638855,719.173950 704.724915,709.456543 
	C702.024170,706.932983 699.272827,704.362183 696.556885,701.824402 
	C686.325439,709.714783 676.696777,710.018311 670.091675,702.837036 
	C664.130005,696.355347 664.076599,685.510376 669.974792,679.129761 
	C676.966614,671.565918 686.075684,671.846313 696.685181,680.099854 
	C699.478577,677.672729 702.305786,675.216187 705.369141,672.554443 
	C697.412415,662.834167 687.340637,660.213745 676.014282,662.268372 
	C663.506592,664.537231 654.997131,671.717407 651.603088,685.248718 
M530.007263,479.641907 
	C562.390015,490.265076 595.247986,497.809967 629.214539,494.732147 
	C630.587646,492.127014 632.038269,489.641663 634.165527,488.075195 
	C638.765381,484.687897 643.711975,481.771576 648.516785,478.662628 
	C646.086304,477.954041 644.184875,478.001953 642.301392,478.211090 
	C623.710510,480.275421 605.109253,480.605103 586.543823,478.118042 
	C570.679688,475.992889 554.819641,474.333588 538.806152,476.094482 
	C535.005615,476.512390 531.220886,477.073364 527.428894,477.568542 
	C527.460510,477.906464 527.492126,478.244385 527.523743,478.582306 
	C528.124146,478.842316 528.724609,479.102325 530.007263,479.641907 
M568.496460,662.675537 
	C559.745789,662.675537 550.995117,662.675537 542.199951,662.675537 
	C542.199951,681.791809 542.199951,700.178284 542.199951,718.631042 
	C546.866516,718.631042 551.241577,718.631042 556.041443,718.631042 
	C556.041443,711.862305 556.041443,705.443848 556.041443,698.438721 
	C564.866821,698.438721 573.282959,698.438721 581.876465,698.438721 
	C581.876465,694.565430 581.876465,691.292175 581.876465,687.379456 
	C573.257446,687.379456 564.864990,687.379456 556.271973,687.379456 
	C556.271973,682.537048 556.271973,678.339905 556.271973,673.775635 
	C566.043518,673.775635 575.465332,673.775635 584.909790,673.775635 
	C584.909790,669.874146 584.909790,666.352051 584.909790,662.677185 
	C579.467346,662.677185 574.480469,662.677185 568.496460,662.675537 
M725.299316,682.541138 
	C725.299316,694.622620 725.299316,706.704102 725.299316,718.756592 
	C730.366394,718.756592 734.804077,718.756592 739.891968,718.756592 
	C739.891968,703.815979 739.891968,689.133362 739.891968,673.988892 
	C746.108032,673.988892 751.678467,673.988892 756.910706,673.988892 
	C756.910706,669.934570 756.910706,666.376892 756.910706,663.073608 
	C740.048035,663.073608 723.669739,663.073608 707.300476,663.073608 
	C707.300476,666.884216 707.300476,670.287109 707.300476,674.175171 
	C713.393494,674.175171 719.143372,674.175171 725.304443,674.175171 
	C725.304443,676.963684 725.304443,679.260254 725.299316,682.541138 
M456.348267,662.734741 
	C453.709503,662.734741 451.070740,662.734741 448.352814,662.734741 
	C448.352814,681.701477 448.352814,700.208008 448.352814,718.607910 
	C453.114075,718.607910 457.492432,718.607910 461.770172,718.607910 
	C461.770172,699.935852 461.770172,681.676575 461.770172,663.038025 
	C460.111481,662.928284 458.668640,662.832825 456.348267,662.734741 
M419.029572,269.418488 
	C433.087891,274.463867 447.277222,275.536285 463.029449,270.954315 
	C458.266510,267.491943 454.598541,262.685913 450.592285,262.385132 
	C443.543274,261.855865 437.270935,254.787323 429.663300,259.702087 
	C429.361542,259.897064 428.714539,259.479156 428.228119,259.478241 
	C419.662384,259.462219 411.096588,259.466644 402.530823,259.466644 
	C402.459961,260.030731 402.389069,260.594818 402.318176,261.158936 
	C407.650574,263.815552 412.982971,266.472198 419.029572,269.418488 
M712.447205,436.246490 
	C714.190125,437.307129 715.932983,438.367798 717.675171,439.429718 
	C722.360962,434.504303 723.065735,434.658783 725.999817,440.492462 
	C726.711792,441.907928 728.082031,443.323486 729.500671,443.977814 
	C731.866272,445.068878 734.515198,445.545746 737.044800,446.281189 
	C737.410217,446.737335 737.775635,447.193451 738.141052,447.649567 
	C741.037048,442.822449 743.970825,438.017487 746.817871,433.161682 
	C749.410950,428.739197 748.334106,425.924652 743.554199,426.826019 
	C737.003845,428.061249 737.828064,424.932770 738.918945,420.891296 
	C737.029724,420.891296 735.601379,420.891296 733.972168,420.891296 
	C734.323364,419.833496 734.580627,419.058594 735.021912,417.729492 
	C725.067749,420.772217 718.684021,427.896088 711.588745,433.958557 
	C711.380920,434.136169 711.860901,435.118652 712.447205,436.246490 
M496.944855,467.402313 
	C507.643951,474.032379 518.649475,472.095245 530.362915,468.369568 
	C507.854126,462.967621 485.920502,457.703735 463.986908,452.439819 
	C463.813416,453.007263 463.639923,453.574677 463.466431,454.142120 
	C474.382263,458.477753 485.298065,462.813385 496.944855,467.402313 
M679.581543,462.295502 
	C678.645447,467.239014 679.722839,468.510345 683.899719,466.598999 
	C686.687927,465.323120 689.126160,463.089020 691.369873,460.920441 
	C692.163513,460.153351 692.558472,457.593719 692.013428,457.105835 
	C690.837708,456.053314 688.804688,455.110107 687.356262,455.379456 
	C683.883667,456.025360 680.850952,457.731537 679.581543,462.295502 
M762.713928,412.997040 
	C760.122070,413.242950 757.530151,413.488861 753.532715,413.868134 
	C755.766602,415.924774 756.820251,417.451843 758.269226,418.114685 
	C761.429932,419.560577 764.799072,420.547302 768.067932,421.762177 
	C769.358887,422.241943 770.609741,422.829559 772.013428,423.425171 
	C773.264893,416.493866 770.433105,413.281006 762.713928,412.997040 
M333.430481,315.420380 
	C333.430481,315.420380 333.529541,315.339508 333.430481,315.420380 
z"/>
<path fill="#1F4C79" opacity="1.000000" stroke="none" 
	d="
M586.062988,409.853149 
	C561.640076,398.750580 537.514404,387.928314 513.540833,376.778809 
	C484.916046,363.466156 455.320312,354.863403 423.551422,357.172333 
	C424.328857,354.034058 426.551086,350.044800 425.408508,348.416382 
	C423.976654,346.375580 419.783508,346.272156 415.826965,345.033478 
	C415.915100,343.254395 416.315216,340.206268 416.087311,337.205780 
	C416.000885,336.068024 414.501312,334.139557 413.588501,334.105408 
	C406.608521,333.844421 399.614380,333.962189 392.268707,333.962189 
	C390.701294,340.617584 383.493347,337.888763 379.188446,341.375305 
	C377.186737,336.843384 374.022766,338.279602 370.996063,339.624603 
	C369.292023,335.857269 369.292023,335.857269 360.455597,341.682281 
	C354.747101,338.460602 354.394073,334.770752 359.199097,331.365631 
	C357.964569,329.424255 356.967560,327.856415 355.443756,325.460175 
	C348.763123,328.843323 341.414398,332.564789 334.115417,336.261047 
	C331.328461,329.767578 332.603790,326.672638 342.972809,317.931946 
	C340.017548,318.385223 338.171173,318.668427 335.448517,319.086029 
	C337.370209,316.177979 338.856354,313.929047 340.342499,311.680115 
	C339.973633,311.429260 339.604767,311.178375 339.235931,310.927521 
	C337.860840,312.061646 336.485779,313.195770 334.459534,314.866943 
	C334.778656,309.066772 338.115234,308.223450 341.721832,307.120941 
	C400.142029,289.262238 454.792755,301.650604 507.040222,328.866058 
	C529.275940,340.448486 550.140015,354.663574 571.642090,367.657959 
	C572.186523,367.986969 572.903137,368.031342 573.539429,368.208466 
	C573.166382,368.899841 572.793396,369.591187 572.420349,370.282562 
	C566.193359,369.027405 559.687012,368.532928 553.793945,366.368530 
	C538.660461,360.810333 523.891235,354.266235 508.798126,348.590271 
	C497.912445,344.496613 486.745270,341.149811 475.688812,337.514893 
	C474.624969,337.165161 473.456146,337.134674 471.887115,336.884369 
	C471.227875,339.375549 470.614044,341.695068 469.920410,344.316162 
	C477.926788,346.859467 485.643127,348.897095 493.047974,351.744690 
	C511.211761,358.729706 529.168884,366.252289 547.333008,373.236450 
	C558.706787,377.609711 570.557922,378.885895 582.708740,377.158417 
	C584.351624,376.924866 586.416199,377.265350 587.821289,378.111145 
	C608.107727,390.322479 628.741150,401.764557 651.710449,408.289307 
	C651.988831,408.368347 652.191162,408.714783 652.780518,409.263947 
	C650.445129,413.078217 648.265869,417.137482 645.536987,420.785675 
	C644.732910,421.860535 642.361145,422.200500 640.729492,422.151764 
	C621.858337,421.588531 603.958069,416.593262 586.062988,409.853149 
z"/>
<path fill="#214D78" opacity="1.000000" stroke="none" 
	d="
M357.593475,268.509094 
	C356.837585,266.846710 356.081696,265.184296 354.919739,262.628815 
	C358.826202,259.449402 363.583527,255.577469 368.570984,251.518219 
	C368.838989,252.768066 369.055511,253.777771 369.323456,255.027267 
	C370.892303,253.582764 372.223236,252.357300 374.199036,250.538116 
	C375.246643,252.080200 376.239624,253.541840 377.310883,255.118729 
	C378.965485,254.101974 380.212769,253.335510 381.911499,252.291626 
	C383.451538,253.642288 385.360382,254.985565 386.863159,256.687378 
	C397.799835,269.072815 411.206055,277.173737 427.450500,280.499451 
	C440.778656,283.228088 453.917969,282.380920 466.994598,278.830688 
	C468.635620,278.385162 471.050690,278.452118 472.334015,279.366547 
	C513.589233,308.763245 559.066895,329.128998 607.619690,342.978027 
	C609.668213,343.562317 611.715149,344.152313 614.493286,344.949188 
	C607.885498,355.037170 600.063782,362.807770 588.974182,366.648315 
	C587.529480,367.148682 585.191406,366.085419 583.648071,365.130615 
	C564.969543,353.575409 546.619202,341.466888 527.679382,330.362000 
	C496.013000,311.795166 462.483246,297.884094 425.840698,292.583496 
	C396.226990,288.299622 367.066071,289.737061 338.628021,299.783264 
	C336.906738,300.391296 335.247162,301.178833 333.514771,301.748840 
	C332.393188,302.117889 331.191345,302.242889 330.025452,302.477234 
	C329.817719,301.075134 329.609985,299.673035 329.402283,298.270966 
	C329.218658,298.445190 329.035034,298.619446 328.851410,298.793701 
	C327.483521,296.040863 326.115631,293.288055 324.520569,290.078003 
	C324.542725,290.073822 323.484039,290.273682 321.697296,290.610992 
	C322.026733,288.875122 321.815033,287.012177 322.631104,286.250854 
	C325.050812,283.993347 323.611694,278.273560 329.200623,278.841248 
	C329.431885,278.864716 329.675903,277.439240 330.126862,276.852509 
	C332.022034,274.386902 333.535156,271.825134 337.747681,273.437531 
	C339.902008,274.262146 342.937622,273.211121 345.456512,272.553925 
	C349.003662,271.628479 352.440857,270.281616 356.427277,269.505463 
	C357.150848,269.433685 357.372162,268.971405 357.593475,268.509094 
M329.902557,294.968719 
	C329.902557,295.868073 329.902557,296.767426 329.902557,298.739929 
	C331.810730,297.165527 332.991425,296.191376 334.172119,295.217224 
	C333.999420,294.893097 333.826691,294.568939 333.653992,294.244781 
	C332.573456,294.244781 331.492920,294.244781 329.902557,294.968719 
z"/>
<path fill="#204C77" opacity="1.000000" stroke="none" 
	d="
M523.464539,270.953339 
	C527.578003,270.980927 531.096741,272.491791 534.830627,269.190063 
	C536.737976,267.503448 542.128418,267.478882 544.492371,268.983978 
	C554.167236,275.143860 563.472534,274.922089 573.429565,269.251129 
	C574.085754,270.103821 574.587097,271.185059 575.432983,271.756836 
	C576.806946,272.685608 578.482544,274.032501 579.897888,273.889191 
	C586.800903,273.190247 588.463989,275.176697 586.154907,281.612549 
	C585.690308,282.907440 586.222290,284.559875 586.294800,286.047455 
	C586.749207,286.085419 587.203613,286.123413 587.658081,286.161377 
	C588.682739,284.630096 589.707397,283.098785 591.343445,280.653717 
	C592.158447,289.262390 599.472839,286.230927 603.344910,289.051361 
	C605.350708,290.512360 607.659973,291.723480 609.243286,293.556244 
	C611.319824,295.960022 613.142334,297.112122 616.495361,295.972290 
	C623.674500,293.531738 629.698486,298.488586 628.087524,305.732666 
	C626.002991,315.106201 623.299561,324.347473 620.669922,333.590912 
	C619.962036,336.078979 618.621765,337.677460 615.188477,336.719269 
	C568.235718,323.615601 524.072388,304.409271 483.590698,277.058197 
	C482.374481,276.236450 481.227295,275.312561 479.619598,274.118073 
	C486.004150,269.465851 492.784760,267.937012 500.165802,268.473846 
	C500.485352,268.497101 500.903564,268.608368 501.115692,268.455872 
	C509.181702,262.657532 516.040710,267.461548 523.464539,270.953339 
z"/>
<path fill="#1F4D7A" opacity="1.000000" stroke="none" 
	d="
M565.803650,498.369049 
	C585.426331,502.786407 604.906250,504.593933 625.577148,503.974792 
	C622.914612,509.127045 620.690247,513.431458 617.957703,518.719177 
	C592.803284,519.257751 567.271606,514.381592 541.523926,507.190765 
	C540.663269,509.834503 539.929382,512.088989 538.722290,515.797058 
	C552.760986,518.692261 566.123474,522.114502 579.697632,524.058533 
	C593.076721,525.974548 606.670166,526.393494 620.169617,527.469299 
	C620.194519,528.098083 620.219482,528.726929 620.244446,529.355713 
	C617.123047,529.869141 613.875916,531.203552 610.902893,530.748291 
	C600.298157,529.124451 593.157104,534.705566 586.913757,541.818542 
	C584.718933,544.319214 582.794617,545.012207 579.731445,544.756104 
	C559.979309,543.104797 541.206299,537.455872 522.649475,530.938904 
	C503.505554,524.215881 484.406464,517.365295 464.863892,510.419891 
	C465.787018,509.391724 466.561584,508.405823 467.458862,507.548309 
	C478.944153,496.571564 492.295441,488.551880 507.142853,483.084442 
	C509.378113,482.261261 512.354065,482.424377 514.705261,483.105316 
	C531.645447,488.011383 548.512878,493.168762 565.803650,498.369049 
z"/>
<path fill="#214C77" opacity="1.000000" stroke="none" 
	d="
M668.367432,346.639465 
	C654.508240,344.440826 641.100525,342.306976 628.742676,340.340240 
	C631.569153,327.177979 634.433167,314.938629 636.745972,302.596008 
	C637.859253,296.654877 642.705994,300.037628 645.564697,298.575653 
	C648.099670,297.279205 651.821655,298.303772 655.174255,298.303772 
	C655.662903,296.007233 656.064148,294.121674 656.621521,291.502075 
	C662.887817,293.276001 668.977234,295.003174 675.070068,296.718109 
	C675.542358,296.851044 676.064148,297.042206 676.520386,296.962555 
	C682.314209,295.950958 683.894043,299.806854 685.277710,304.226501 
	C686.849243,309.246368 687.854980,309.509460 692.760254,306.893280 
	C696.373596,304.966156 701.297974,305.910095 703.773254,309.047516 
	C704.377747,309.813721 704.849548,310.684723 705.358765,311.471161 
	C711.904602,305.550293 717.776733,305.185669 723.487061,309.384064 
	C733.123169,303.055481 741.965637,301.680634 750.322693,311.860870 
	C749.514832,312.230225 748.313904,313.014130 747.000000,313.334503 
	C743.505249,314.186462 742.538452,316.293091 743.872192,319.425842 
	C747.786499,328.619720 747.061157,328.838318 740.241699,335.627625 
	C731.561340,344.269470 720.764404,346.290192 709.689148,346.851013 
	C696.103027,347.538971 682.445496,346.816803 668.367432,346.639465 
z"/>
<path fill="#1E4B77" opacity="1.000000" stroke="none" 
	d="
M396.624817,448.686157 
	C416.740448,447.936646 435.391235,452.920380 453.634308,459.447418 
	C467.725952,464.489227 481.510010,470.391083 495.425751,475.923187 
	C496.162262,476.216003 496.851959,476.626556 497.887207,477.144135 
	C491.937653,480.480896 486.010284,483.131226 480.857391,486.853638 
	C473.188324,492.393738 466.141296,498.787994 458.651184,504.588409 
	C457.059601,505.820984 454.557220,506.933197 452.719177,506.627899 
	C435.179169,503.714752 417.783722,499.128784 400.149567,497.934204 
	C391.709564,497.362427 392.355743,490.322571 387.617096,487.888977 
	C387.347656,487.750610 387.159637,486.787689 387.357452,486.505219 
	C390.513885,481.997894 389.380646,475.807037 393.911987,471.586395 
	C396.934479,468.771149 398.526367,464.420013 399.799988,462.329529 
	C395.396240,457.768799 392.217224,454.476471 389.038177,451.184113 
	C389.144592,450.655792 389.251007,450.127472 389.357422,449.599152 
	C391.634308,449.302826 393.911163,449.006531 396.624817,448.686157 
z"/>
<path fill="#224F7C" opacity="1.000000" stroke="none" 
	d="
M396.000397,435.967621 
	C397.782104,434.005676 400.095093,432.305359 401.220184,430.020111 
	C402.881531,426.645844 404.869537,425.262299 408.776245,425.141235 
	C432.472260,424.406982 455.526459,428.501068 478.496185,433.635468 
	C509.996216,440.676605 541.365356,448.514862 573.128174,454.087158 
	C591.353577,457.284546 610.245911,456.687744 628.840149,457.763458 
	C630.970947,457.886719 633.115051,457.780151 635.838623,457.780151 
	C635.621460,463.673798 638.490784,467.412567 643.814392,469.383545 
	C643.723816,469.808868 643.633240,470.234222 643.542664,470.659576 
	C631.629456,470.932190 619.691406,471.831329 607.807739,471.359741 
	C572.509521,469.958954 538.331360,461.843628 504.116455,453.697540 
	C480.678894,448.117462 457.008301,443.206879 433.195831,439.639038 
	C421.028442,437.816010 408.319916,439.604370 395.447266,439.416931 
	C395.359161,438.038147 395.679779,437.002869 396.000397,435.967621 
z"/>
<path fill="#234F7B" opacity="1.000000" stroke="none" 
	d="
M595.244629,424.995117 
	C609.918396,427.230408 624.174500,429.393097 638.586304,431.579407 
	C636.870300,434.899261 635.200806,438.856079 632.815369,442.319916 
	C632.057861,443.419800 629.280579,443.812073 627.618835,443.502228 
	C606.860413,439.631378 585.958435,436.314911 565.447693,431.382507 
	C536.171631,424.342224 507.184875,416.171509 477.200806,412.379211 
	C451.908447,409.180267 426.714233,409.602875 401.521088,413.162598 
	C401.090912,413.223419 400.631836,413.079651 400.810944,413.099060 
	C403.139618,408.815033 405.529327,404.418671 408.839783,398.328461 
	C418.052124,397.836365 429.303009,396.793182 440.560486,396.715942 
	C475.985962,396.472870 510.349518,403.596893 544.457336,412.336517 
	C561.221558,416.632111 578.035522,420.733307 595.244629,424.995117 
z"/>
<path fill="#204D7A" opacity="1.000000" stroke="none" 
	d="
M675.124268,374.129974 
	C666.959290,375.478424 664.272278,382.024872 660.387756,387.365143 
	C663.130371,388.601166 665.432861,389.638855 667.981079,390.787231 
	C664.104736,394.243622 660.980835,397.293793 657.533325,399.919006 
	C656.659607,400.584351 654.685425,400.154022 653.334656,399.790161 
	C637.327393,395.478180 622.548706,388.300262 608.166382,380.225616 
	C604.404724,378.113770 600.693420,375.912109 596.564819,373.523651 
	C600.615173,370.594910 604.668945,368.277985 607.944275,365.146698 
	C612.488281,360.802429 616.944092,356.187073 620.479553,351.030823 
	C622.767090,347.694611 624.779297,347.451813 628.169983,348.233582 
	C650.618713,353.409393 673.306763,356.726776 696.420044,356.202789 
	C702.376770,356.067749 708.325012,355.556549 715.011353,356.258240 
	C713.204529,357.536133 711.556091,359.189301 709.564697,360.029877 
	C698.252808,364.804474 686.858948,369.384888 675.124268,374.129974 
z"/>
<path fill="#204D7A" opacity="1.000000" stroke="none" 
	d="
M472.911377,522.160156 
	C495.420898,529.939087 517.392700,538.112549 539.742432,545.072510 
	C552.675354,549.099976 566.216980,551.172668 580.434570,554.336548 
	C577.463562,558.243103 574.223389,562.503540 571.705872,565.813843 
	C567.467041,564.730469 563.797119,562.786682 560.423645,563.209412 
	C556.962280,563.643188 553.790771,566.390381 549.661560,568.562134 
	C542.517090,565.955322 534.014160,564.747986 525.297241,568.019592 
	C524.483215,568.325134 523.395325,568.017700 522.458191,567.857300 
	C519.215515,567.302124 515.912231,565.954895 512.763245,566.260559 
	C507.724121,566.749634 504.383972,564.715881 500.919373,561.494385 
	C486.084717,547.700623 471.060944,534.110291 455.795410,520.161865 
	C456.431427,517.809875 458.352814,517.186096 461.214722,518.213257 
	C464.962921,519.558472 468.757538,520.774231 472.911377,522.160156 
z"/>
<path fill="#1F4D7A" opacity="1.000000" stroke="none" 
	d="
M463.806702,538.208130 
	C474.205719,547.954712 484.335541,557.472046 494.465393,566.989380 
	C489.759613,566.805054 487.402863,568.387390 484.653381,572.116150 
	C481.480499,576.419067 477.139343,580.372681 470.041168,579.354370 
	C464.785248,578.600220 460.602509,582.516602 457.367706,586.924805 
	C454.434631,590.921814 451.064240,594.597900 447.609314,598.748657 
	C443.981171,595.756958 441.111023,593.328674 438.167999,590.992188 
	C436.885193,589.973694 435.396729,588.290833 434.098358,588.376465 
	C428.695160,588.732727 428.596375,584.193481 429.165436,581.750427 
	C433.162292,564.590576 437.580353,547.507019 447.267334,532.407715 
	C448.246735,530.881042 449.279694,529.388794 450.537903,527.506470 
	C455.028595,531.124084 459.283051,534.551453 463.806702,538.208130 
z"/>
<path fill="#204D7A" opacity="1.000000" stroke="none" 
	d="
M535.497253,396.650757 
	C540.289429,399.061951 544.751160,401.299469 549.212952,403.536957 
	C549.083618,403.938751 548.954346,404.340546 548.825073,404.742310 
	C546.917236,404.393738 544.972290,404.182098 543.107239,403.676147 
	C511.383911,395.071320 479.261322,388.792084 446.281738,388.455536 
	C434.672516,388.337067 423.030853,389.446350 411.441864,390.437622 
	C407.798370,390.749268 406.654053,389.835632 406.590485,386.377411 
	C406.532440,383.219269 406.020294,380.069489 405.730621,377.141510 
	C407.399567,374.922485 409.422058,372.654083 410.951294,370.091400 
	C412.774200,367.036682 415.237549,366.088959 418.701172,365.775421 
	C448.508179,363.077209 476.584747,369.511566 503.583344,381.616699 
	C514.198242,386.376007 524.644043,391.512421 535.497253,396.650757 
z"/>
<path fill="#1F4C79" opacity="1.000000" stroke="none" 
	d="
M386.853088,513.971619 
	C388.157776,512.707397 389.692505,511.805969 390.028931,510.576599 
	C391.121948,506.582428 394.047089,506.101288 397.375946,506.128326 
	C411.567474,506.243561 431.363281,513.496826 443.330414,523.097412 
	C434.075592,537.658875 427.071777,553.288452 423.462067,570.646118 
	C420.881592,569.359131 419.094727,568.327942 420.990509,565.041321 
	C421.569000,564.038391 420.807159,561.857727 420.060486,560.561157 
	C415.469299,552.588867 407.899109,547.806458 400.012360,544.090515 
	C395.808319,542.109680 390.385712,542.715088 384.452454,542.030945 
	C384.418549,541.804626 384.309082,540.057129 383.873810,538.394958 
	C383.118866,535.511780 382.082794,532.702332 381.327728,529.819214 
	C381.007660,528.596924 380.649597,527.082275 381.085114,526.018250 
	C382.728729,522.002808 384.691254,518.117920 386.853088,513.971619 
z"/>
<path fill="#244D7C" opacity="1.000000" stroke="none" 
	d="
M527.991455,683.000427 
	C527.990723,695.128357 527.990723,706.756409 527.990723,718.487305 
	C520.904663,719.907959 515.329651,719.482727 510.702667,712.669006 
	C504.841858,704.038147 497.632416,696.323181 490.121521,687.132629 
	C490.121521,698.343079 490.121521,708.323853 490.121521,718.660522 
	C485.234039,718.660522 480.981476,718.660522 476.273529,718.660522 
	C476.273529,700.356628 476.273529,681.827576 476.272675,663.296021 
	C483.161835,661.572815 488.463867,662.915222 492.937195,669.284485 
	C499.100861,678.060608 506.311096,686.101624 513.806519,695.364014 
	C513.806519,684.013123 513.806519,673.794739 513.806519,663.152710 
	C518.603210,663.152710 522.964783,663.152710 527.992126,663.152710 
	C527.992126,669.623474 527.992126,676.062073 527.991455,683.000427 
z"/>
<path fill="#244D7C" opacity="1.000000" stroke="none" 
	d="
M371.178253,698.196899 
	C362.663239,704.668152 352.979950,703.607178 342.849762,703.628723 
	C342.849762,708.682617 342.849762,713.565002 342.849762,718.720581 
	C337.756866,718.720581 333.368652,718.720581 328.734009,718.720581 
	C328.734009,700.166321 328.734009,681.751892 328.734009,661.926514 
	C340.488312,662.706726 352.481628,662.035156 363.732666,664.608582 
	C378.942108,668.087585 382.572876,686.230164 371.178253,698.196899 
M360.851959,676.563293 
	C355.301300,672.717529 349.125885,674.315918 343.132202,674.058411 
	C343.132202,680.366699 343.132202,686.194397 343.132202,692.153503 
	C346.949860,692.153503 350.268982,692.276184 353.576294,692.130127 
	C362.910004,691.718140 366.244202,685.262634 360.851959,676.563293 
z"/>
<path fill="#234D7B" opacity="1.000000" stroke="none" 
	d="
M637.285645,692.595703 
	C641.221069,701.403015 644.989868,709.870728 649.067383,719.032043 
	C644.319580,719.032043 640.185303,719.359924 636.157898,718.847534 
	C634.816040,718.676880 633.016357,716.513489 632.682251,714.986206 
	C631.264893,708.506775 627.306519,706.608704 621.201843,707.536804 
	C619.413940,707.808533 617.518250,707.771912 615.722229,707.519470 
	C608.112183,706.449829 602.018188,707.596497 600.345093,716.669189 
	C600.167542,717.632202 598.067017,718.778198 596.773804,718.894226 
	C593.317261,719.204346 589.814514,718.999756 585.822754,718.999756 
	C586.222595,717.668030 586.423340,716.620300 586.840332,715.667236 
	C593.968628,699.374634 601.181641,683.118713 608.220337,666.787659 
	C609.511475,663.791809 611.117249,662.163391 614.549500,662.695679 
	C616.173950,662.947571 617.901184,662.933350 619.528503,662.687073 
	C622.904541,662.176270 624.597717,663.630859 625.878723,666.699890 
	C629.463013,675.286438 633.350891,683.746277 637.285645,692.595703 
M610.233887,693.633545 
	C610.027222,694.579041 609.820557,695.524536 609.580688,696.622070 
	C614.610535,696.622070 619.376831,696.622070 624.926697,696.622070 
	C622.314758,690.137390 619.898254,684.137878 617.021301,676.995239 
	C614.523438,683.183289 612.549988,688.072327 610.233887,693.633545 
z"/>
<path fill="#234D7B" opacity="1.000000" stroke="none" 
	d="
M389.140686,694.025146 
	C393.209259,684.688843 397.223907,675.740234 400.978699,666.683960 
	C402.245514,663.628540 403.937653,662.165466 407.336945,662.651794 
	C409.293671,662.931824 411.446564,662.282959 413.284454,662.823303 
	C415.041260,663.339783 417.296478,664.494446 417.975464,665.986328 
	C425.684875,682.924377 433.136108,699.979980 440.638184,717.012146 
	C440.824860,717.435974 440.803009,717.951599 440.976776,719.041321 
	C436.887909,719.041321 432.932617,719.364929 429.082520,718.870178 
	C427.687256,718.690918 425.747406,716.732849 425.421570,715.280090 
	C423.935211,708.652710 420.038177,706.686829 413.582123,707.500671 
	C409.161041,708.057861 404.596680,707.386475 400.125977,707.694458 
	C398.693634,707.793091 396.691620,708.936646 396.080139,710.164734 
	C391.117615,720.132019 391.199463,720.172791 378.401886,718.580994 
	C381.964081,710.432190 385.474609,702.401550 389.140686,694.025146 
M406.284943,685.731445 
	C404.888977,689.236023 403.493011,692.740601 401.922241,696.684082 
	C407.246796,696.684082 411.957153,696.684082 417.490814,696.684082 
	C414.912872,690.125793 412.530457,684.064941 409.761810,677.021484 
	C408.387573,680.439514 407.467773,682.727356 406.284943,685.731445 
z"/>
<path fill="#264F7D" opacity="1.000000" stroke="none" 
	d="
M764.289429,688.583496 
	C758.605042,678.435364 761.953796,668.263184 772.325195,664.094910 
	C782.457703,660.022705 792.567444,661.430176 802.532959,665.029663 
	C804.791260,665.845459 805.647949,667.177490 804.480103,669.628357 
	C803.356140,671.987122 802.594727,674.518555 801.781311,676.687744 
	C796.617310,675.487732 791.849426,674.076721 786.979736,673.326111 
	C781.119385,672.422913 776.259705,674.462219 775.992371,677.731750 
	C775.497375,683.786194 780.712158,683.678284 784.463257,684.831482 
	C788.269775,686.001709 792.256775,686.582092 796.069641,687.735229 
	C803.808655,690.075745 807.591736,694.555664 807.923096,701.352722 
	C808.267883,708.424500 804.550781,714.667480 797.577209,717.466980 
	C784.958374,722.532837 772.859863,720.443359 760.581238,714.067749 
	C762.072449,710.356934 763.454834,706.916931 764.736206,703.728394 
	C769.544495,705.403442 773.933044,707.388428 778.535522,708.382507 
	C781.848938,709.098145 785.582336,709.053406 788.868103,708.264160 
	C790.805481,707.798767 793.156860,705.419556 793.569519,703.520264 
	C793.845825,702.248718 791.346924,699.478760 789.562134,698.828918 
	C784.905334,697.133667 779.805359,696.640808 775.174805,694.892944 
	C771.401367,693.468628 768.051086,690.923401 764.289429,688.583496 
z"/>
<path fill="#264F7D" opacity="1.000000" stroke="none" 
	d="
M317.070312,694.078247 
	C321.905792,704.078430 318.403076,713.913757 308.376587,717.704468 
	C295.885071,722.427185 283.931610,720.084534 271.998444,713.933594 
	C273.543427,710.232483 274.922119,706.929810 276.284180,703.666931 
	C280.908051,705.280457 285.303192,707.105835 289.864288,708.294617 
	C292.532196,708.989929 295.491608,708.972046 298.271362,708.726135 
	C301.447449,708.445129 305.427124,707.573608 304.931763,703.652100 
	C304.666046,701.548462 301.524933,699.043945 299.140411,698.126953 
	C293.742035,696.050842 287.814423,695.330566 282.453033,693.182739 
	C272.718933,689.282959 269.938385,677.778137 276.470551,669.617188 
	C277.893341,667.839661 279.700745,666.082092 281.714813,665.112976 
	C293.545959,659.419922 305.159210,661.042053 317.070312,666.299316 
	C315.671814,670.147644 314.454193,673.498291 313.376740,676.463196 
	C307.752502,675.259277 302.641815,673.923523 297.446716,673.168091 
	C295.260254,672.850037 292.664490,673.287903 290.686890,674.260620 
	C289.180115,675.001892 287.490662,677.118591 287.473267,678.641541 
	C287.456451,680.116394 289.172089,682.363037 290.652679,682.954712 
	C294.325775,684.422668 298.282806,685.206787 302.155640,686.141846 
	C307.699585,687.480286 313.200958,688.842468 317.070312,694.078247 
z"/>
<path fill="#244D7C" opacity="1.000000" stroke="none" 
	d="
M651.690063,684.832520 
	C654.997131,671.717407 663.506592,664.537231 676.014282,662.268372 
	C687.340637,660.213745 697.412415,662.834167 705.369141,672.554443 
	C702.305786,675.216187 699.478577,677.672729 696.685181,680.099854 
	C686.075684,671.846313 676.966614,671.565918 669.974792,679.129761 
	C664.076599,685.510376 664.130005,696.355347 670.091675,702.837036 
	C676.696777,710.018311 686.325439,709.714783 696.556885,701.824402 
	C699.272827,704.362183 702.024170,706.932983 704.724915,709.456543 
	C698.638855,719.173950 683.388611,722.949341 670.368835,718.218628 
	C656.541443,713.194397 649.335693,700.534485 651.690063,684.832520 
z"/>
<path fill="#234F7B" opacity="1.000000" stroke="none" 
	d="
M529.666138,479.502136 
	C528.724609,479.102325 528.124146,478.842316 527.523743,478.582306 
	C527.492126,478.244385 527.460510,477.906464 527.428894,477.568542 
	C531.220886,477.073364 535.005615,476.512390 538.806152,476.094482 
	C554.819641,474.333588 570.679688,475.992889 586.543823,478.118042 
	C605.109253,480.605103 623.710510,480.275421 642.301392,478.211090 
	C644.184875,478.001953 646.086304,477.954041 648.516785,478.662628 
	C643.711975,481.771576 638.765381,484.687897 634.165527,488.075195 
	C632.038269,489.641663 630.587646,492.127014 629.214539,494.732147 
	C595.247986,497.809967 562.390015,490.265076 529.666138,479.502136 
z"/>
<path fill="#264F7D" opacity="1.000000" stroke="none" 
	d="
M568.994995,662.676392 
	C574.480469,662.677185 579.467346,662.677185 584.909790,662.677185 
	C584.909790,666.352051 584.909790,669.874146 584.909790,673.775635 
	C575.465332,673.775635 566.043518,673.775635 556.271973,673.775635 
	C556.271973,678.339905 556.271973,682.537048 556.271973,687.379456 
	C564.864990,687.379456 573.257446,687.379456 581.876465,687.379456 
	C581.876465,691.292175 581.876465,694.565430 581.876465,698.438721 
	C573.282959,698.438721 564.866821,698.438721 556.041443,698.438721 
	C556.041443,705.443848 556.041443,711.862305 556.041443,718.631042 
	C551.241577,718.631042 546.866516,718.631042 542.199951,718.631042 
	C542.199951,700.178284 542.199951,681.791809 542.199951,662.675537 
	C550.995117,662.675537 559.745789,662.675537 568.994995,662.676392 
z"/>
<path fill="#264F7D" opacity="1.000000" stroke="none" 
	d="
M725.301880,682.049011 
	C725.304443,679.260254 725.304443,676.963684 725.304443,674.175171 
	C719.143372,674.175171 713.393494,674.175171 707.300476,674.175171 
	C707.300476,670.287109 707.300476,666.884216 707.300476,663.073608 
	C723.669739,663.073608 740.048035,663.073608 756.910706,663.073608 
	C756.910706,666.376892 756.910706,669.934570 756.910706,673.988892 
	C751.678467,673.988892 746.108032,673.988892 739.891968,673.988892 
	C739.891968,689.133362 739.891968,703.815979 739.891968,718.756592 
	C734.804077,718.756592 730.366394,718.756592 725.299316,718.756592 
	C725.299316,706.704102 725.299316,694.622620 725.301880,682.049011 
z"/>
<path fill="#264F7D" opacity="1.000000" stroke="none" 
	d="
M456.787048,662.736023 
	C458.668640,662.832825 460.111481,662.928284 461.770172,663.038025 
	C461.770172,681.676575 461.770172,699.935852 461.770172,718.607910 
	C457.492432,718.607910 453.114075,718.607910 448.352814,718.607910 
	C448.352814,700.208008 448.352814,681.701477 448.352814,662.734741 
	C451.070740,662.734741 453.709503,662.734741 456.787048,662.736023 
z"/>
<path fill="#264F7D" opacity="1.000000" stroke="none" 
	d="
M418.672485,269.273682 
	C412.982971,266.472198 407.650574,263.815552 402.318176,261.158936 
	C402.389069,260.594818 402.459961,260.030731 402.530823,259.466644 
	C411.096588,259.466644 419.662384,259.462219 428.228119,259.478241 
	C428.714539,259.479156 429.361542,259.897064 429.663300,259.702087 
	C437.270935,254.787323 443.543274,261.855865 450.592285,262.385132 
	C454.598541,262.685913 458.266510,267.491943 463.029449,270.954315 
	C447.277222,275.536285 433.087891,274.463867 418.672485,269.273682 
z"/>
<path fill="#2C5683" opacity="1.000000" stroke="none" 
	d="
M712.233704,435.986176 
	C711.860901,435.118652 711.380920,434.136169 711.588745,433.958557 
	C718.684021,427.896088 725.067749,420.772217 735.021912,417.729492 
	C734.580627,419.058594 734.323364,419.833496 733.972168,420.891296 
	C735.601379,420.891296 737.029724,420.891296 738.918945,420.891296 
	C737.828064,424.932770 737.003845,428.061249 743.554199,426.826019 
	C748.334106,425.924652 749.410950,428.739197 746.817871,433.161682 
	C743.970825,438.017487 741.037048,442.822449 738.141052,447.649567 
	C737.775635,447.193451 737.410217,446.737335 737.044800,446.281189 
	C734.515198,445.545746 731.866272,445.068878 729.500671,443.977814 
	C728.082031,443.323486 726.711792,441.907928 725.999817,440.492462 
	C723.065735,434.658783 722.360962,434.504303 717.675537,439.429077 
	C715.932983,438.367798 714.190125,437.307129 712.233704,435.986176 
z"/>
<path fill="#2C5683" opacity="1.000000" stroke="none" 
	d="
M496.579376,467.275665 
	C485.298065,462.813385 474.382263,458.477753 463.466431,454.142120 
	C463.639923,453.574677 463.813416,453.007263 463.986908,452.439819 
	C485.920502,457.703735 507.854126,462.967621 530.362915,468.369568 
	C518.649475,472.095245 507.643951,474.032379 496.579376,467.275665 
z"/>
<path fill="#3C6594" opacity="1.000000" stroke="none" 
	d="
M679.872314,462.035583 
	C680.850952,457.731537 683.883667,456.025360 687.356262,455.379456 
	C688.804688,455.110107 690.837708,456.053314 692.013428,457.105835 
	C692.558472,457.593719 692.163513,460.153351 691.369873,460.920441 
	C689.126160,463.089020 686.687927,465.323120 683.899719,466.598999 
	C679.722839,468.510345 678.645447,467.239014 679.872314,462.035583 
z"/>
<path fill="#3C6594" opacity="1.000000" stroke="none" 
	d="
M763.106567,412.978027 
	C770.433105,413.281006 773.264893,416.493866 772.013428,423.425171 
	C770.609741,422.829559 769.358887,422.241943 768.067932,421.762177 
	C764.799072,420.547302 761.429932,419.560577 758.269226,418.114685 
	C756.820251,417.451843 755.766602,415.924774 753.532715,413.868134 
	C757.530151,413.488861 760.122070,413.242950 763.106567,412.978027 
z"/>
<path fill="#3C6594" opacity="1.000000" stroke="none" 
	d="
M395.635162,435.856018 
	C395.679779,437.002869 395.359161,438.038147 395.035217,439.404846 
	C392.791473,441.541321 390.551056,443.346313 387.998505,445.402771 
	C385.831543,442.938721 383.324188,440.087616 380.816833,437.236481 
	C381.047546,436.739136 381.278259,436.241760 381.508972,435.744415 
	C386.095947,435.744415 390.682953,435.744415 395.635162,435.856018 
z"/>
<path fill="#1F4C79" opacity="1.000000" stroke="none" 
	d="
M333.480011,315.379944 
	C333.529541,315.339508 333.430481,315.420380 333.480011,315.379944 
z"/>
<path fill="#FEFFFF" opacity="1.000000" stroke="none" 
	d="
M330.157471,294.606750 
	C331.492920,294.244781 332.573456,294.244781 333.653992,294.244781 
	C333.826691,294.568939 333.999420,294.893097 334.172119,295.217224 
	C332.991425,296.191376 331.810730,297.165527 329.902557,298.739929 
	C329.902557,296.767426 329.902557,295.868073 330.157471,294.606750 
z"/>
<path fill="#FEFFFF" opacity="1.000000" stroke="none" 
	d="
M357.320374,268.744080 
	C357.372162,268.971405 357.150848,269.433685 356.733337,269.691986 
	C356.707245,269.318329 356.877289,269.148712 357.320374,268.744080 
z"/>
<path fill="#FEFFFF" opacity="1.000000" stroke="none" 
	d="
M361.132874,676.827637 
	C366.244202,685.262634 362.910004,691.718140 353.576294,692.130127 
	C350.268982,692.276184 346.949860,692.153503 343.132202,692.153503 
	C343.132202,686.194397 343.132202,680.366699 343.132202,674.058411 
	C349.125885,674.315918 355.301300,672.717529 361.132874,676.827637 
z"/>
<path fill="#EAEFF1" opacity="1.000000" stroke="none" 
	d="
M610.405151,693.297424 
	C612.549988,688.072327 614.523438,683.183289 617.021301,676.995239 
	C619.898254,684.137878 622.314758,690.137390 624.926697,696.622070 
	C619.376831,696.622070 614.610535,696.622070 609.580688,696.622070 
	C609.820557,695.524536 610.027222,694.579041 610.405151,693.297424 
z"/>
<path fill="#EAEFF1" opacity="1.000000" stroke="none" 
	d="
M406.416443,685.373291 
	C407.467773,682.727356 408.387573,680.439514 409.761810,677.021484 
	C412.530457,684.064941 414.912872,690.125793 417.490814,696.684082 
	C411.957153,696.684082 407.246796,696.684082 401.922241,696.684082 
	C403.493011,692.740601 404.888977,689.236023 406.416443,685.373291 
z"/>
</svg>