<?xml version="1.0" encoding="UTF-8" standalone="no"?>
<svg
   version="1.1"
   id="Layer_1"
   x="0px"
   y="0px"
   width="1183744"
   viewBox="0 0 1183744 921600"
   enable-background="new 0 0 1088 960"
   xml:space="preserve"
   sodipodi:docname="logo.svg"
   height="921600"
   xmlns:inkscape="http://www.inkscape.org/namespaces/inkscape"
   xmlns:sodipodi="http://sodipodi.sourceforge.net/DTD/sodipodi-0.dtd"
   xmlns="http://www.w3.org/2000/svg"
   xmlns:svg="http://www.w3.org/2000/svg"><defs
   id="defs37" /><sodipodi:namedview
   id="namedview37"
   pagecolor="#ffffff"
   bordercolor="#000000"
   borderopacity="0.25"
   inkscape:showpageshadow="2"
   inkscape:pageopacity="0.0"
   inkscape:pagecheckerboard="0"
   inkscape:deskcolor="#d1d1d1"
   showgrid="false"><inkscape:page
     x="0"
     y="0"
     width="1183744"
     height="921600"
     id="page2"
     margin="0"
     bleed="0" /></sodipodi:namedview>

<path
   fill="#1f4c79"
   opacity="1"
   stroke="none"
   d="m 586.06299,409.85315 c -24.42291,-11.10257 -48.54859,-21.92484 -72.52216,-33.07434 -28.62478,-13.31265 -58.22052,-21.91541 -89.98941,-19.60648 0.77744,-3.13827 2.99967,-7.12753 1.85709,-8.75595 -1.43186,-2.0408 -5.625,-2.14422 -9.58155,-3.3829 0.0881,-1.77909 0.48826,-4.82721 0.26035,-7.8277 -0.0864,-1.13776 -1.586,-3.06622 -2.49881,-3.10037 -6.97998,-0.26099 -13.97412,-0.14322 -21.31979,-0.14322 -1.56742,6.65539 -8.77536,3.92657 -13.08026,7.41312 -2.00171,-4.53193 -5.16568,-3.09571 -8.19239,-1.75071 -1.70404,-3.76733 -1.70404,-3.76733 -10.54046,2.05768 -5.7085,-3.22168 -6.06153,-6.91153 -1.2565,-10.31665 -1.23453,-1.94137 -2.23154,-3.50921 -3.75534,-5.90546 -6.68064,3.38315 -14.02936,7.10462 -21.32834,10.80088 -2.78696,-6.49347 -1.51163,-9.58841 8.85739,-18.3291 -2.95526,0.45327 -4.80164,0.73648 -7.52429,1.15408 1.92169,-2.90805 3.40783,-5.15698 4.89398,-7.40592 -0.36887,-0.25085 -0.73773,-0.50173 -1.10657,-0.75259 -1.37509,1.13413 -2.75015,2.26825 -4.7764,3.93942 0.31913,-5.80017 3.6557,-6.64349 7.2623,-7.746 58.4202,-17.8587 113.07092,-5.47034 165.31839,21.74512 22.23572,11.58243 43.09979,25.79751 64.60187,38.7919 0.54443,0.32901 1.26105,0.37338 1.89734,0.55051 -0.37305,0.69137 -0.74603,1.38272 -1.11908,2.07409 -6.22699,-1.25516 -12.73334,-1.74963 -18.62641,-3.91403 -15.13348,-5.5582 -29.9027,-12.1023 -44.99581,-17.77826 -10.88569,-4.09366 -22.05286,-7.44046 -33.10932,-11.07538 -1.06384,-0.34973 -2.23266,-0.38022 -3.8017,-0.63052 -0.65924,2.49118 -1.27307,4.8107 -1.9667,7.43179 8.00638,2.54331 15.72272,4.58093 23.12756,7.42853 18.16379,6.98502 36.12091,14.5076 54.28504,21.49176 11.37378,4.37326 23.22491,5.64944 35.37573,3.92197 1.64288,-0.23355 3.70746,0.10693 5.11255,0.95273 20.28644,12.21133 40.91986,23.65341 63.88916,30.17816 0.27838,0.079 0.48071,0.42547 1.07007,0.97464 -2.33539,3.81427 -4.51465,7.87353 -7.24353,11.52173 -0.80408,1.07486 -3.17585,1.41482 -4.8075,1.36608 -18.87115,-0.56323 -36.77142,-5.5585 -54.6665,-12.29861 z"
   id="path2"
   inkscape:export-filename="logo2.svg"
   inkscape:export-xdpi="96"
   inkscape:export-ydpi="96" />
<path
   fill="#214d78"
   opacity="1"
   stroke="none"
   d="m 357.59347,268.50909 c -0.75589,-1.66238 -1.51177,-3.32479 -2.67373,-5.88028 3.90646,-3.17941 8.66379,-7.05134 13.65124,-11.11059 0.26801,1.24985 0.48453,2.25955 0.75248,3.50905 1.56884,-1.44451 2.89978,-2.66997 4.87558,-4.48915 1.0476,1.54208 2.04058,3.00372 3.11184,4.58061 1.6546,-1.01676 2.90189,-1.78322 4.60062,-2.8271 1.54004,1.35066 3.44888,2.69393 4.95166,4.39575 10.93667,12.38543 24.34289,20.48636 40.58734,23.81207 13.32816,2.72864 26.46747,1.88147 39.5441,-1.66876 1.64102,-0.44553 4.05609,-0.37857 5.33942,0.53586 41.25521,29.39669 86.73288,49.76245 135.28567,63.61148 2.04852,0.58429 4.09546,1.17428 6.8736,1.97116 -6.60779,10.08798 -14.42951,17.85858 -25.51911,21.69913 -1.4447,0.50036 -3.78277,-0.5629 -5.32611,-1.51771 C 564.96954,353.57541 546.6192,341.46689 527.67938,330.362 496.013,311.79517 462.48325,297.88409 425.8407,292.5835 c -29.61371,-4.28388 -58.77463,-2.84644 -87.21268,7.19976 -1.72128,0.60804 -3.38086,1.39557 -5.11325,1.96558 -1.12158,0.36905 -2.32343,0.49405 -3.48932,0.72839 -0.20773,-1.4021 -0.41547,-2.80419 -0.62317,-4.20626 -0.18362,0.17422 -0.36725,0.34848 -0.55087,0.52273 -1.36789,-2.75284 -2.73578,-5.50565 -4.33084,-8.7157 0.0222,-0.004 -1.03653,0.19568 -2.82327,0.53299 0.32943,-1.73587 0.11773,-3.59881 0.9338,-4.36014 2.41971,-2.2575 0.98059,-7.97729 6.56952,-7.4096 0.23127,0.0235 0.47528,-1.40201 0.92624,-1.98874 1.89517,-2.46561 3.4083,-5.02738 7.62082,-3.41498 2.15433,0.82462 5.18994,-0.22641 7.70883,-0.88361 3.54715,-0.92544 6.98435,-2.2723 10.97077,-3.04846 0.72357,-0.0718 0.94488,-0.53406 1.16619,-0.99637 m -27.69091,26.45963 c 0,0.89935 0,1.79871 0,3.77121 1.90817,-1.5744 3.08886,-2.54855 4.26956,-3.52271 -0.1727,-0.32412 -0.34543,-0.64828 -0.51813,-0.97244 -1.08053,0 -2.16107,0 -3.75143,0.72394 z"
   id="path3" />
<path
   fill="#204c77"
   opacity="1"
   stroke="none"
   d="m 523.46454,270.95334 c 4.11346,0.0276 7.6322,1.53845 11.36609,-1.76328 1.90735,-1.68661 7.29779,-1.71118 9.66174,-0.20608 9.67487,6.15988 18.98016,5.93811 28.9372,0.26715 0.65618,0.85269 1.15753,1.93393 2.00341,2.50571 1.37397,0.92877 3.04956,2.27566 4.46491,2.13235 6.90301,-0.69894 8.5661,1.28751 6.25702,7.72336 -0.4646,1.29489 0.0674,2.94732 0.13989,4.43491 0.45441,0.038 0.90881,0.0759 1.36328,0.11392 1.02466,-1.53128 2.04932,-3.06259 3.68536,-5.50766 0.81501,8.60867 8.1294,5.57721 12.00147,8.39764 2.0058,1.461 4.31506,2.67212 5.89838,4.50488 2.07653,2.40378 3.89904,3.55588 7.25207,2.41605 7.17914,-2.44055 13.20313,2.5163 11.59216,9.76038 -2.08453,9.37353 -4.78796,18.6148 -7.4176,27.85824 -0.70788,2.48807 -2.04816,4.08655 -5.48144,3.12836 -46.95276,-13.10367 -91.11609,-32.31 -131.59778,-59.66107 -1.21622,-0.82175 -2.3634,-1.74564 -3.9711,-2.94013 6.38455,-4.65222 13.16516,-6.18106 20.5462,-5.64422 0.31955,0.0232 0.73776,0.13452 0.94989,-0.018 8.06601,-5.79834 14.92502,-0.99432 22.34885,2.49747 z"
   id="path4" />
<path
   fill="#1f4d7a"
   opacity="1"
   stroke="none"
   d="m 565.80365,498.36905 c 19.62268,4.41736 39.1026,6.22488 59.7735,5.60574 -2.66254,5.15225 -4.8869,9.45667 -7.61945,14.74439 -25.15442,0.53857 -50.68609,-4.33759 -76.43377,-11.52842 -0.86066,2.64374 -1.59455,4.89823 -2.80164,8.6063 14.0387,2.8952 27.40118,6.31744 40.97534,8.26147 13.37909,1.91602 26.97254,2.33496 40.47199,3.41077 0.0249,0.62878 0.0499,1.25763 0.0748,1.88641 -3.1214,0.51343 -6.36853,1.84784 -9.34156,1.39258 -10.60473,-1.62384 -17.74579,3.95728 -23.98913,11.07025 -2.19483,2.50067 -4.11914,3.19367 -7.18232,2.93756 -19.75213,-1.6513 -38.52514,-7.30023 -57.08196,-13.8172 -19.14393,-6.72302 -38.24302,-13.57361 -57.78559,-20.51901 0.92313,-1.02817 1.69769,-2.01407 2.59497,-2.87158 11.48529,-10.97675 24.83658,-18.99643 39.68399,-24.46387 2.23526,-0.82318 5.21121,-0.66006 7.56241,0.0209 16.94019,4.90606 33.80762,10.06344 51.09839,15.26373 z"
   id="path5" />
<path
   fill="#214c77"
   opacity="1"
   stroke="none"
   d="m 668.36743,346.63946 c -13.85919,-2.19863 -27.26691,-4.33248 -39.62475,-6.29922 2.82647,-13.16226 5.69049,-25.40161 8.00329,-37.74423 1.11328,-5.94113 5.96002,-2.55838 8.81873,-4.02036 2.53497,-1.29645 6.25695,-0.27188 9.60956,-0.27188 0.48864,-2.29654 0.88989,-4.1821 1.44726,-6.8017 6.2663,1.77393 12.35571,3.5011 18.44855,5.21604 0.47229,0.13293 0.99408,0.3241 1.45032,0.24444 5.79382,-1.01159 7.37365,2.8443 8.75732,7.26395 1.57153,5.01987 2.57727,5.28296 7.48254,2.66678 3.61335,-1.92712 8.53772,-0.98319 11.013,2.15424 0.6045,0.7662 1.0763,1.6372 1.58551,2.42364 6.54584,-5.92087 12.41797,-6.28549 18.1283,-2.0871 9.63611,-6.32858 18.47858,-7.70343 26.83563,2.47681 -0.80786,0.36936 -2.00879,1.15326 -3.32269,1.47363 -3.49475,0.85196 -4.46155,2.95859 -3.12781,6.09134 3.91431,9.19388 3.18897,9.41248 -3.63049,16.20179 -8.68036,8.64184 -19.4773,10.66256 -30.55255,11.22338 -13.58612,0.68796 -27.24365,-0.0342 -41.32172,-0.21155 z"
   id="path6" />
<path
   fill="#1e4b77"
   opacity="1"
   stroke="none"
   d="m 396.62482,448.68616 c 20.11563,-0.74951 38.76641,4.23422 57.00949,10.76126 14.09164,5.04181 27.8757,10.94366 41.79144,16.47577 0.73651,0.29281 1.42621,0.70337 2.46146,1.22094 -5.94956,3.33677 -11.87693,5.9871 -17.02982,9.70951 -7.66907,5.5401 -14.71609,11.93435 -22.20621,17.73477 -1.59158,1.23257 -4.09396,2.34479 -5.932,2.03949 -17.54001,-2.91315 -34.93546,-7.49912 -52.56961,-8.6937 -8.44001,-0.57177 -7.79383,-7.61163 -12.53247,-10.04522 -0.26944,-0.13837 -0.45746,-1.10129 -0.25965,-1.38376 3.15644,-4.50733 2.0232,-10.69818 6.55454,-14.91883 3.02249,-2.81524 4.61438,-7.16638 5.888,-9.25686 -4.40375,-4.56073 -7.58277,-7.85306 -10.76181,-11.14542 0.10641,-0.52832 0.21283,-1.05664 0.31924,-1.58496 2.27689,-0.29632 4.55374,-0.59262 7.2674,-0.91299 z"
   id="path7" />
<path
   fill="#224f7c"
   opacity="1"
   stroke="none"
   d="m 396.0004,435.96762 c 1.7817,-1.96194 4.09469,-3.66226 5.21978,-5.94751 1.66135,-3.37427 3.64936,-4.75781 7.55607,-4.87888 23.69601,-0.73425 46.75021,3.35984 69.71994,8.49424 31.50003,7.04113 62.86917,14.87939 94.63198,20.45169 18.22541,3.19739 37.11774,2.60058 55.71198,3.6763 2.1308,0.12326 4.2749,0.0167 6.99847,0.0167 -0.21716,5.89365 2.65216,9.63242 7.97577,11.6034 -0.0906,0.42532 -0.18115,0.85067 -0.27173,1.27603 -11.9132,0.27261 -23.85125,1.17175 -35.73492,0.70016 -35.29822,-1.40079 -69.47638,-9.51611 -103.69129,-17.6622 -23.43756,-5.58008 -47.10815,-10.49066 -70.92062,-14.0585 -12.16739,-1.82303 -24.87591,-0.0347 -37.74856,-0.22211 -0.0881,-1.37878 0.23251,-2.41406 0.55313,-3.44931 z"
   id="path8" />
<path
   fill="#234f7b"
   opacity="1"
   stroke="none"
   d="m 595.24463,424.99512 c 14.67377,2.23529 28.92987,4.39798 43.34167,6.58429 -1.716,3.31985 -3.38549,7.27667 -5.77093,10.74051 -0.75751,1.09988 -3.53479,1.49215 -5.19654,1.18231 -20.75842,-3.87085 -41.6604,-7.18732 -62.17114,-12.11972 -29.27606,-7.04029 -58.26282,-15.211 -88.24688,-19.0033 -25.29236,-3.19894 -50.48658,-2.77634 -75.67972,0.78339 -0.43018,0.0608 -0.88925,-0.0829 -0.71015,-0.0635 2.32868,-4.28403 4.71839,-8.68039 8.02884,-14.7706 9.21234,-0.4921 20.46323,-1.53528 31.72071,-1.61252 35.42547,-0.24307 69.78903,6.88095 103.89685,15.62058 16.76422,4.29559 33.57818,8.39679 50.78729,12.6586 z"
   id="path9" />
<path
   fill="#204d7a"
   opacity="1"
   stroke="none"
   d="m 675.12427,374.12997 c -8.16498,1.34845 -10.85199,7.8949 -14.73651,13.23517 2.74261,1.23603 5.0451,2.27371 7.59332,3.42209 -3.87634,3.45639 -7.00025,6.50656 -10.44776,9.13178 -0.87371,0.66534 -2.8479,0.23501 -4.19866,-0.12885 -16.00727,-4.31198 -30.78595,-11.4899 -45.16828,-19.56454 -3.76166,-2.11185 -7.47296,-4.31351 -11.60156,-6.70197 4.05035,-2.92874 8.10412,-5.24567 11.37945,-8.37695 4.54401,-4.34427 8.99982,-8.95963 12.53528,-14.11588 2.28754,-3.33621 4.29975,-3.57901 7.69043,-2.79724 22.44873,5.17581 45.13678,8.4932 68.25006,7.96921 5.95673,-0.13504 11.90497,-0.64624 18.59131,0.0555 -1.80682,1.27789 -3.45526,2.93106 -5.44665,3.77164 -11.31189,4.77459 -22.70575,9.35501 -34.44043,14.10009 z"
   id="path10" />
<path
   fill="#204d7a"
   opacity="1"
   stroke="none"
   d="m 472.91138,522.16016 c 22.50952,7.77893 44.48132,15.95239 66.83105,22.91235 12.93292,4.02747 26.47455,6.10016 40.69214,9.26404 -2.97101,3.90655 -6.21118,8.16699 -8.7287,11.47729 -4.23883,-1.08337 -7.90875,-3.02716 -11.28223,-2.60443 -3.46136,0.43378 -6.63287,3.18097 -10.76208,5.35272 -7.14447,-2.60681 -15.6474,-3.81414 -24.36432,-0.54254 -0.81403,0.30554 -1.90192,-0.002 -2.83905,-0.16229 -3.24268,-0.55518 -6.54596,-1.90241 -9.69495,-1.59674 -5.03912,0.48907 -8.37927,-1.54468 -11.84387,-4.76618 -14.83465,-13.79376 -29.85843,-27.38409 -45.12396,-41.33251 0.63602,-2.35199 2.5574,-2.97577 5.41931,-1.94861 3.7482,1.34521 7.54282,2.56097 11.69666,3.9469 z"
   id="path11" />
<path
   fill="#1f4d7a"
   opacity="1"
   stroke="none"
   d="m 463.8067,538.20813 c 10.39902,9.74658 20.52884,19.26392 30.65869,28.78125 -4.70578,-0.18433 -7.06253,1.39801 -9.81201,5.12677 -3.17288,4.30292 -7.51404,8.25653 -14.61221,7.23822 -5.25592,-0.75415 -9.43866,3.16223 -12.67346,7.57043 -2.93308,3.99701 -6.30347,7.6731 -9.7584,11.82386 -3.62814,-2.9917 -6.49829,-5.41999 -9.44131,-7.75647 -1.28281,-1.0185 -2.77127,-2.70136 -4.06964,-2.61572 -5.4032,0.35626 -5.50198,-4.18299 -4.93292,-6.62604 3.99685,-17.15985 8.41491,-34.24341 18.10189,-49.34271 0.9794,-1.52668 2.01236,-3.01893 3.27057,-4.90125 4.49069,3.61761 8.74515,7.04498 13.2688,10.70166 z"
   id="path12" />
<path
   fill="#204d7a"
   opacity="1"
   stroke="none"
   d="m 535.49725,396.65076 c 4.79218,2.41119 9.25391,4.64871 13.7157,6.8862 -0.12933,0.40179 -0.2586,0.80359 -0.38788,1.20535 -1.90783,-0.34857 -3.85278,-0.56021 -5.71783,-1.06616 -31.72333,-8.60483 -63.84592,-14.88407 -96.8255,-15.22061 -11.60922,-0.11847 -23.25089,0.99081 -34.83988,1.98208 -3.64349,0.31165 -4.78781,-0.60199 -4.85138,-4.06021 -0.058,-3.15814 -0.57019,-6.30792 -0.85986,-9.2359 1.66895,-2.21903 3.69144,-4.48743 5.22067,-7.05011 1.82291,-3.05472 4.28626,-4.00244 7.74988,-4.31598 29.80701,-2.69821 57.88358,3.73615 84.88217,15.84128 10.6149,4.75931 21.0607,9.89572 31.91391,15.03406 z"
   id="path13" />
<path
   fill="#1f4c79"
   opacity="1"
   stroke="none"
   d="m 386.85309,513.97162 c 1.30469,-1.26422 2.83941,-2.16565 3.17584,-3.39502 1.09302,-3.99417 4.01816,-4.47531 7.34702,-4.44827 14.19152,0.11523 33.98733,7.3685 45.95446,16.96908 -9.25482,14.56146 -16.25863,30.19104 -19.86834,47.54871 -2.58048,-1.28699 -4.36734,-2.31818 -2.47156,-5.6048 0.57849,-1.00293 -0.18335,-3.18359 -0.93002,-4.48016 -4.59119,-7.97229 -12.16138,-12.7547 -20.04813,-16.47065 -4.20404,-1.98083 -9.62665,-1.37542 -15.55991,-2.05957 -0.0339,-0.22631 -0.14337,-1.97381 -0.57864,-3.63598 -0.75494,-2.88318 -1.79102,-5.69263 -2.54608,-8.57575 -0.32007,-1.22229 -0.67813,-2.73694 -0.24262,-3.80096 1.64362,-4.01544 3.60614,-7.90033 5.76798,-12.04663 z"
   id="path14" />







<path
   fill="#234f7b"
   opacity="1"
   stroke="none"
   d="m 529.66614,479.50214 c -0.94153,-0.39982 -1.54199,-0.65982 -2.1424,-0.91983 -0.0316,-0.33792 -0.0632,-0.67585 -0.0948,-1.01377 3.792,-0.49518 7.57673,-1.05615 11.37726,-1.47406 16.01349,-1.76089 31.87354,-0.10159 47.73767,2.02356 18.56543,2.48706 37.16669,2.15738 55.75757,0.0931 1.88349,-0.20914 3.78491,-0.25705 6.2154,0.45154 -4.80481,3.10895 -9.75141,6.02527 -14.35126,9.41256 -2.12726,1.56647 -3.57788,4.05182 -4.95099,6.65696 -33.96655,3.07782 -66.82453,-4.46707 -99.5484,-15.23001 z"
   id="path22" />



<path
   fill="#264f7d"
   opacity="1"
   stroke="none"
   d="m 418.67248,269.27368 c -5.68951,-2.80148 -11.02191,-5.45813 -16.3543,-8.11474 0.0709,-0.56412 0.14178,-1.12821 0.21264,-1.6923 8.56577,0 17.13156,-0.004 25.6973,0.0116 0.48642,9.2e-4 1.13342,0.41882 1.43518,0.22385 7.60763,-4.91477 13.87997,2.15377 20.92898,2.68304 4.00626,0.30078 7.67423,5.10681 12.43717,8.56918 -15.75223,4.58198 -29.94156,3.50956 -44.35697,-1.68063 z"
   id="path26" />
<path
   fill="#2c5683"
   opacity="1"
   stroke="none"
   d="m 712.2337,435.98618 c -0.3728,-0.86753 -0.85278,-1.85001 -0.64495,-2.02762 7.09527,-6.06247 13.479,-13.18634 23.43316,-16.22907 -0.44128,1.3291 -0.69855,2.10401 -1.04974,3.16181 1.62921,0 3.05755,0 4.94677,0 -1.09088,4.04147 -1.9151,7.16995 4.63526,5.93472 4.77991,-0.90137 5.85675,1.91318 3.26367,6.33566 -2.84705,4.85581 -5.78082,9.66077 -8.67682,14.48789 -0.36542,-0.45612 -0.73083,-0.91224 -1.09625,-1.36838 -2.5296,-0.73544 -5.17853,-1.21231 -7.54413,-2.30338 -1.41864,-0.65432 -2.78888,-2.06988 -3.50085,-3.48535 -2.93408,-5.83368 -3.63886,-5.98816 -8.32428,-1.06338 -1.74256,-1.06128 -3.48542,-2.12195 -5.44184,-3.4429 z"
   id="path27" />
<path
   fill="#2c5683"
   opacity="1"
   stroke="none"
   d="m 496.57938,467.27566 c -11.28132,-4.46228 -22.19712,-8.79791 -33.11295,-13.13354 0.17349,-0.56744 0.34699,-1.13486 0.52048,-1.7023 21.93359,5.26391 43.86722,10.5278 66.37601,15.92975 -11.71344,3.72567 -22.71897,5.66281 -33.78354,-1.09391 z"
   id="path28" />
<path
   fill="#3c6594"
   opacity="1"
   stroke="none"
   d="m 679.87231,462.03558 c 0.97864,-4.30404 4.01136,-6.01022 7.48395,-6.65612 1.44843,-0.26935 3.48145,0.67385 4.65717,1.72638 0.54504,0.48788 0.15008,3.04751 -0.64356,3.8146 -2.24371,2.16858 -4.68194,4.40268 -7.47015,5.67856 -4.17688,1.91134 -5.25427,0.64001 -4.02741,-4.56342 z"
   id="path29" />
<path
   fill="#3c6594"
   opacity="1"
   stroke="none"
   d="m 763.10657,412.97803 c 7.32653,0.30298 10.15832,3.51584 8.90686,10.44714 -1.40369,-0.59561 -2.65454,-1.18323 -3.9455,-1.66299 -3.26886,-1.21488 -6.638,-2.2016 -9.7987,-3.6475 -1.44898,-0.66284 -2.50263,-2.18991 -4.73651,-4.24655 3.99743,-0.37927 6.58935,-0.62518 9.57385,-0.8901 z"
   id="path30" />
<path
   fill="#3c6594"
   opacity="1"
   stroke="none"
   d="m 395.63516,435.85602 c 0.0446,1.14685 -0.276,2.18213 -0.59994,3.54883 -2.24375,2.13647 -4.48416,3.94146 -7.03671,5.99792 -2.16697,-2.46405 -4.67432,-5.31515 -7.18168,-8.16629 0.23072,-0.49734 0.46143,-0.99472 0.69214,-1.49207 4.58698,0 9.17398,0 14.12619,0.11161 z"
   id="path31" />
<path
   fill="#1f4c79"
   opacity="1"
   stroke="none"
   d="m 333.48001,315.37994 c 0.0495,-0.0404 -0.0495,0.0404 0,0 z"
   id="path32" />
<path
   fill="#feffff"
   opacity="1"
   stroke="none"
   d="m 330.15747,294.60675 c 1.33545,-0.36197 2.41599,-0.36197 3.49652,-0.36197 0.1727,0.32416 0.34543,0.64832 0.51813,0.97244 -1.1807,0.97416 -2.36139,1.94831 -4.26956,3.52271 0,-1.9725 0,-2.87186 0.25491,-4.13318 z"
   id="path33" />
<path
   fill="#feffff"
   opacity="1"
   stroke="none"
   d="m 357.32037,268.74408 c 0.0518,0.22732 -0.16952,0.68961 -0.58703,0.94791 -0.0261,-0.37366 0.14395,-0.54328 0.58703,-0.94791 z"
   id="path34" />



</svg>
