<?xml version="1.0" encoding="UTF-8" standalone="no"?>
<svg
   version="1.1"
   id="Layer_1"
   x="0px"
   y="0px"
   width="1100"
   viewBox="0 0 1100 381"
   enable-background="new 0 0 1088 960"
   xml:space="preserve"
   sodipodi:docname="logo16.svg"
   inkscape:version="1.4.2 (f4327f4, 2025-05-13)"
   inkscape:export-filename="logo8.png"
   inkscape:export-xdpi="96"
   inkscape:export-ydpi="96"
   height="381"
   xmlns:inkscape="http://www.inkscape.org/namespaces/inkscape"
   xmlns:sodipodi="http://sodipodi.sourceforge.net/DTD/sodipodi-0.dtd"
   xmlns="http://www.w3.org/2000/svg"
   xmlns:svg="http://www.w3.org/2000/svg"><defs
   id="defs37" /><sodipodi:namedview
   id="namedview37"
   pagecolor="#ffffff"
   bordercolor="#000000"
   borderopacity="0.25"
   inkscape:showpageshadow="2"
   inkscape:pageopacity="0.0"
   inkscape:pagecheckerboard="0"
   inkscape:deskcolor="#d1d1d1"
   inkscape:zoom="0.37722724"
   inkscape:cx="531.50987"
   inkscape:cy="572.59916"
   inkscape:window-width="1280"
   inkscape:window-height="730"
   inkscape:window-x="-6"
   inkscape:window-y="-6"
   inkscape:window-maximized="1"
   inkscape:current-layer="Layer_1"
   inkscape:lockguides="false"
   showguides="true" />

<path
   fill="#1f4c79"
   opacity="1"
   stroke="none"
   d="m 270.60326,160.66647 c -24.42291,-11.10257 -48.54859,-21.92483 -72.52216,-33.07434 -28.62478,-13.31265 -58.22052,-21.9154 -89.98941,-19.60647 0.77744,-3.13828 2.99967,-7.12754 1.85709,-8.755949 -1.43186,-2.04081 -5.625,-2.14423 -9.58155,-3.38291 0.0881,-1.77908 0.48826,-4.82721 0.26035,-7.8277 -0.0864,-1.13775 -1.586001,-3.06622 -2.498811,-3.10037 -6.97997,-0.26098 -13.97411,-0.14322 -21.31978,-0.14322 -1.56742,6.6554 -8.775368,3.92658 -13.080269,7.41312 -2.001709,-4.53192 -5.16568,-3.0957 -8.192383,-1.7507 -1.70404,-3.76734 -1.70404,-3.76734 -10.540466,2.05768 -5.708496,-3.22168 -6.061524,-6.91153 -1.2565,-10.31665 -1.234528,-1.94138 -2.231537,-3.50922 -3.755341,-5.90546 -6.680633,3.38315 -14.029358,7.10461 -21.328339,10.80087 -2.786956,-6.49347 -1.511627,-9.58841 8.857392,-18.329096 -2.955261,0.45328 -4.801636,0.73648 -7.524292,1.15408 1.921692,-2.908053 3.407837,-5.156983 4.893982,-7.405913 -0.368866,-0.25086 -0.737732,-0.50174 -1.106568,-0.75259 -1.375091,1.13412 -2.750152,2.26824 -4.776397,3.93942 0.319122,-5.80017 3.6557,-6.6435 7.262298,-7.746 58.420203,-17.85871 113.070914,-5.47034 165.318384,21.745109 22.23572,11.58243 43.09979,25.797519 64.60187,38.791899 0.54443,0.32901 1.26105,0.37339 1.89734,0.55051 -0.37305,0.69138 -0.74603,1.38272 -1.11908,2.0741 -6.22699,-1.25516 -12.73334,-1.74964 -18.62641,-3.91404 -15.13348,-5.55819 -29.90271,-12.10229 -44.99581,-17.778249 -10.88569,-4.09366 -22.05286,-7.44046 -33.10932,-11.07538 -1.06384,-0.34973 -2.23266,-0.38022 -3.8017,-0.63053 -0.65924,2.49118 -1.27307,4.8107 -1.9667,7.4318 8.00638,2.5433 15.72272,4.58093 23.12756,7.428519 18.16379,6.98502 36.12091,14.5076 54.28504,21.49176 11.37378,4.37327 23.22491,5.64945 35.37573,3.92197 1.64288,-0.23355 3.70746,0.10693 5.11255,0.95273 20.28644,12.21133 40.91986,23.65341 63.88916,30.17816 0.27838,0.079 0.48071,0.42548 1.07007,0.97464 -2.33539,3.81427 -4.51465,7.87354 -7.24353,11.52173 -0.80408,1.07486 -3.17585,1.41482 -4.8075,1.36609 -18.87115,-0.56323 -36.77142,-5.5585 -54.6665,-12.29862 z"
   id="path2"
   inkscape:export-filename="logo42.png"
   inkscape:export-xdpi="96"
   inkscape:export-ydpi="96"
   style="opacity:0.6;stroke:#140000;stroke-width:3;stroke-dasharray:none;stroke-opacity:1" />
<path
   fill="#214d78"
   opacity="1"
   stroke="none"
   d="m 42.133749,19.322421 c -0.75589,-1.66239 -1.511779,-3.3248 -2.673736,-5.88028 3.906463,-3.17941 8.663788,-7.0513495 13.651245,-11.1105995 0.268005,1.24985 0.484527,2.25956 0.752472,3.50905 1.568847,-1.4445 2.89978,-2.66997 4.87558,-4.48915 1.047607,1.54208 2.040588,3.00372 3.111847,4.58061 1.654602,-1.01675 2.901886,-1.78322 4.600616,-2.8271 1.540039,1.35066 3.448881,2.69394 4.951661,4.39575 10.936675,12.3854395 24.342885,20.4863605 40.587336,23.8120805 13.32816,2.72863 26.46747,1.88146 39.5441,-1.66877 1.64102,-0.44552 4.05609,-0.37857 5.33941,0.53586 41.25522,29.3967 86.73288,49.762449 135.28568,63.611479 2.04852,0.58429 4.09546,1.17429 6.8736,1.97116 -6.60779,10.087979 -14.42951,17.858579 -25.51911,21.699129 -1.4447,0.50037 -3.78277,-0.5629 -5.32611,-1.5177 C 249.50981,104.38873 231.15947,92.280211 212.21965,81.175321 180.55327,62.608492 147.02352,48.697422 110.38097,43.396822 c -29.613701,-4.28387 -58.774625,-2.84643 -87.212675,7.19977 -1.721283,0.60803 -3.380859,1.39557 -5.11325,1.96557 -1.121583,0.36905 -2.323426,0.49405 -3.489319,0.7284 -0.207733,-1.4021 -0.415467,-2.8042 -0.623169,-4.20627 -0.183625,0.17422 -0.367249,0.34848 -0.550873,0.52274 -1.367889,-2.75284 -2.735779,-5.50565 -4.3308406,-8.7157 0.02216,-0.004 -1.03653,0.19568 -2.823273,0.53299 0.329437,-1.73587 0.117737,-3.59882 0.933808,-4.36014 2.419708,-2.25751 0.98059,-7.9773 6.5695186,-7.40961 0.231262,0.0235 0.47528,-1.40201 0.926239,-1.98874 1.895172,-2.465601 3.408294,-5.027371 7.620819,-3.414971 2.154327,0.82461 5.189941,-0.22641 7.708831,-0.88361 3.54715,-0.92545 6.984345,-2.27231 10.970765,-3.04846 0.723571,-0.0718 0.944885,-0.53406 1.166198,-0.99637 M 14.442831,45.782042 c 0,0.89936 0,1.79871 0,3.77121 1.908173,-1.5744 3.088868,-2.54855 4.269562,-3.5227 -0.172699,-0.32413 -0.345428,-0.64829 -0.518127,-0.97244 -1.080536,0 -2.161072,0 -3.751435,0.72393 z"
   id="path3"
   style="opacity:0.6;stroke:#140000;stroke-width:3;stroke-dasharray:none;stroke-opacity:1" />
<path
   fill="#204c77"
   opacity="1"
   stroke="none"
   d="m 208.00481,21.766661 c 4.11346,0.0276 7.6322,1.53846 11.36609,-1.76327 1.90735,-1.68662 7.29779,-1.71118 9.66174,-0.20609 9.67487,6.159881 18.98016,5.93811 28.93719,0.26715 0.65619,0.8527 1.15754,1.93393 2.00342,2.50571 1.37397,0.92877 3.04956,2.27567 4.46491,2.13236 6.90301,-0.69895 8.5661,1.287501 6.25702,7.723351 -0.4646,1.29489 0.0674,2.94733 0.13989,4.43491 0.45441,0.038 0.90881,0.076 1.36328,0.11392 1.02466,-1.53128 2.04932,-3.06259 3.68536,-5.50766 0.81501,8.60867 8.1294,5.57721 12.00147,8.39765 2.0058,1.46099 4.31506,2.67211 5.89838,4.50488 2.07653,2.40378 3.89904,3.55588 7.25207,2.41604 7.17914,-2.44055 13.20313,2.5163 11.59216,9.76038 -2.08453,9.37354 -4.78796,18.614813 -7.4176,27.858249 -0.70788,2.48806 -2.04816,4.08654 -5.48144,3.12835 -46.95276,-13.103656 -91.11609,-32.309989 -131.59778,-59.661069 -1.21622,-0.82175 -2.36341,-1.74563 -3.9711,-2.940121 6.38455,-4.65222 13.16516,-6.18106 20.5462,-5.64423 0.31955,0.0233 0.73776,0.13452 0.94989,-0.018 8.06601,-5.79834 14.92502,-0.99433 22.34885,2.49746 z"
   id="path4"
   style="opacity:0.6;stroke:#140000;stroke-width:3;stroke-dasharray:none;stroke-opacity:1" />
<path
   fill="#1f4d7a"
   opacity="1"
   stroke="none"
   d="m 250.34392,249.18237 c 19.62268,4.41736 39.1026,6.22489 59.7735,5.60575 -2.66254,5.15225 -4.8869,9.45666 -7.61945,14.74438 -25.15442,0.53858 -50.68609,-4.33758 -76.43377,-11.52841 -0.86066,2.64374 -1.59455,4.89822 -2.80164,8.60629 14.0387,2.89521 27.40118,6.31745 40.97534,8.26148 13.37909,1.91601 26.97254,2.33496 40.47199,3.41076 0.0249,0.62879 0.0499,1.25763 0.0748,1.88642 -3.1214,0.51343 -6.36853,1.84784 -9.34156,1.39258 -10.60473,-1.62384 -17.74579,3.95727 -23.98913,11.07025 -2.19483,2.50067 -4.11914,3.19366 -7.18232,2.93756 -19.75213,-1.65131 -38.52514,-7.30023 -57.08197,-13.8172 -19.14392,-6.72302 -38.24301,-13.57361 -57.78558,-20.51901 0.92313,-1.02817 1.69769,-2.01407 2.59497,-2.87159 11.48529,-10.97674 24.83658,-18.99643 39.68399,-24.46386 2.23526,-0.82318 5.21121,-0.66007 7.56241,0.0209 16.94019,4.90607 33.80762,10.06345 51.09839,15.26373 z"
   id="path5"
   style="opacity:0.6;stroke:#140000;stroke-width:3;stroke-dasharray:none;stroke-opacity:1" />
<path
   fill="#214c77"
   opacity="1"
   stroke="none"
   d="m 352.9077,97.452791 c -13.85919,-2.19864 -27.26691,-4.33249 -39.62475,-6.29923 2.82647,-13.16226 5.69049,-25.401609 8.00329,-37.744229 1.11328,-5.94113 5.96002,-2.55838 8.81873,-4.02035 2.53497,-1.29645 6.25695,-0.27188 9.60955,-0.27188 0.48865,-2.29654 0.8899,-4.1821 1.44727,-6.8017 6.2663,1.77393 12.35571,3.5011 18.44855,5.21603 0.47229,0.13294 0.99408,0.3241 1.45032,0.24445 5.79382,-1.0116 7.37365,2.8443 8.75732,7.26395 1.57153,5.01986 2.57727,5.28295 7.48254,2.66677 3.61335,-1.92712 8.53772,-0.98318 11.013,2.15424 0.6045,0.76621 1.0763,1.63721 1.58551,2.42365 6.54584,-5.92087 12.41797,-6.2855 18.1283,-2.0871 9.63611,-6.32858 18.47858,-7.70343 26.83563,2.4768 -0.80786,0.36936 -2.00879,1.15326 -3.32269,1.47364 -3.49475,0.85196 -4.46155,2.95859 -3.12781,6.091343 3.91431,9.193866 3.18897,9.412466 -3.63049,16.201776 -8.68036,8.64184 -19.4773,10.66257 -30.55255,11.22339 -13.58612,0.68796 -27.24365,-0.0342 -41.32172,-0.21155 z"
   id="path6"
   style="opacity:0.6;stroke:#140000;stroke-width:3;stroke-dasharray:none;stroke-opacity:1" />
<path
   fill="#1e4b77"
   opacity="1"
   stroke="none"
   d="m 81.165099,199.49948 c 20.115621,-0.74951 38.766401,4.23422 57.009481,10.76126 14.09164,5.04181 27.8757,10.94367 41.79144,16.47577 0.73651,0.29282 1.42621,0.70337 2.46146,1.22095 -5.94956,3.33676 -11.87693,5.98709 -17.02982,9.7095 -7.66907,5.5401 -14.71609,11.93436 -22.20621,17.73477 -1.59158,1.23258 -4.09396,2.34479 -5.932,2.03949 -17.54001,-2.91314 -34.93546,-7.49911 -52.569601,-8.69369 -8.44001,-0.57178 -7.79383,-7.61163 -12.532475,-10.04523 -0.26944,-0.13837 -0.45746,-1.10129 -0.25965,-1.38376 3.156435,-4.50732 2.023205,-10.69818 6.554545,-14.91882 3.02249,-2.81525 4.61438,-7.16638 5.888,-9.25687 -4.40375,-4.56073 -7.58277,-7.85305 -10.76181,-11.14541 0.10641,-0.52832 0.21283,-1.05664 0.31924,-1.58496 2.27689,-0.29633 4.55374,-0.59262 7.2674,-0.913 z"
   id="path7"
   style="opacity:0.6;stroke:#140000;stroke-width:3;stroke-dasharray:none;stroke-opacity:1" />
<path
   fill="#224f7c"
   opacity="1"
   stroke="none"
   d="m 80.540679,186.78095 c 1.7817,-1.96195 4.09469,-3.66227 5.21978,-5.94751 1.66135,-3.37427 3.64936,-4.75782 7.55605,-4.87888 23.696021,-0.73425 46.750221,3.35983 69.719941,8.49423 31.50004,7.04114 62.86918,14.8794 94.63199,20.45169 18.22541,3.19739 37.11774,2.60059 55.71198,3.6763 2.1308,0.12326 4.2749,0.0167 6.99847,0.0167 -0.21716,5.89364 2.65216,9.63241 7.97577,11.60339 -0.0906,0.42532 -0.18115,0.85068 -0.27173,1.27603 -11.9132,0.27261 -23.85125,1.17175 -35.73492,0.70017 -35.29822,-1.40079 -69.47638,-9.51612 -103.69129,-17.66221 -23.43756,-5.58007 -47.10815,-10.49066 -70.92062,-14.0585 -12.16739,-1.82303 -24.875911,-0.0347 -37.748551,-0.2221 -0.0881,-1.37879 0.23251,-2.41407 0.55313,-3.44931 z"
   id="path8"
   style="opacity:0.6;stroke:#140000;stroke-width:3;stroke-dasharray:none;stroke-opacity:1" />
<path
   fill="#234f7b"
   opacity="1"
   stroke="none"
   d="m 279.7849,175.80844 c 14.67377,2.23529 28.92987,4.39798 43.34167,6.58429 -1.716,3.31986 -3.38549,7.27667 -5.77093,10.74051 -0.75751,1.09988 -3.53479,1.49216 -5.19654,1.18231 -20.75842,-3.87085 -41.6604,-7.18731 -62.17114,-12.11972 -29.27606,-7.04028 -58.26282,-15.211 -88.24688,-19.00329 -25.29236,-3.19895 -50.48658,-2.77634 -75.679711,0.78338 -0.43018,0.0608 -0.88925,-0.0829 -0.71015,-0.0635 2.32868,-4.28402 4.71839,-8.68038 8.02883,-14.77059 9.212341,-0.4921 20.463231,-1.53528 31.720711,-1.61252 35.42547,-0.24308 69.78903,6.88095 103.89685,15.62057 16.76422,4.2956 33.57818,8.39679 50.78729,12.6586 z"
   id="path9"
   style="opacity:0.6;stroke:#140000;stroke-width:3;stroke-dasharray:none;stroke-opacity:1" />
<path
   fill="#204d7a"
   opacity="1"
   stroke="none"
   d="m 359.66454,124.9433 c -8.16498,1.34845 -10.85199,7.8949 -14.73651,13.23517 2.74261,1.23602 5.0451,2.27371 7.59332,3.42209 -3.87634,3.45639 -7.00025,6.50656 -10.44776,9.13177 -0.87371,0.66535 -2.8479,0.23502 -4.19866,-0.12884 -16.00727,-4.31199 -30.78595,-11.4899 -45.16828,-19.56455 -3.76166,-2.11185 -7.47296,-4.31351 -11.60156,-6.70196 4.05035,-2.92875 8.10412,-5.24567 11.37945,-8.37696 4.54401,-4.34427 8.99982,-8.95962 12.53528,-14.11587 2.28754,-3.336209 4.29975,-3.579009 7.69043,-2.797239 22.44873,5.175809 45.13678,8.493189 68.25006,7.969199 5.95673,-0.13504 11.90497,-0.64624 18.59131,0.0555 -1.80682,1.2779 -3.45526,2.93107 -5.44665,3.77164 -11.31189,4.7746 -22.70575,9.35501 -34.44043,14.1001 z"
   id="path10"
   style="opacity:0.6;stroke:#140000;stroke-width:3;stroke-dasharray:none;stroke-opacity:1" />
<path
   fill="#204d7a"
   opacity="1"
   stroke="none"
   d="m 157.45165,272.97348 c 22.50952,7.77893 44.48132,15.95239 66.83105,22.91235 12.93292,4.02747 26.47455,6.10016 40.69214,9.26404 -2.97101,3.90656 -6.21118,8.16699 -8.7287,11.4773 -4.23883,-1.08338 -7.90875,-3.02716 -11.28223,-2.60443 -3.46136,0.43377 -6.63287,3.18097 -10.76208,5.35272 -7.14447,-2.60681 -15.6474,-3.81415 -24.36432,-0.54254 -0.81403,0.30554 -1.90192,-0.002 -2.83905,-0.1623 -3.24268,-0.55517 -6.54596,-1.9024 -9.69495,-1.59674 -5.03912,0.48908 -8.37927,-1.54467 -11.84387,-4.76617 -14.83465,-13.79376 -29.85843,-27.38409 -45.12396,-41.33252 0.63602,-2.35199 2.5574,-2.97577 5.41931,-1.94861 3.7482,1.34522 7.54282,2.56098 11.69666,3.9469 z"
   id="path11"
   style="opacity:0.6;stroke:#140000;stroke-width:3;stroke-dasharray:none;stroke-opacity:1" />
<path
   fill="#1f4d7a"
   opacity="1"
   stroke="none"
   d="m 148.34697,289.02145 c 10.39902,9.74659 20.52884,19.26392 30.65869,28.78125 -4.70578,-0.18432 -7.06253,1.39801 -9.81201,5.12677 -3.17288,4.30292 -7.51404,8.25654 -14.61221,7.23822 -5.25592,-0.75415 -9.43866,3.16224 -12.67346,7.57044 -2.93308,3.99701 -6.30347,7.67309 -9.7584,11.82385 -3.62814,-2.9917 -6.49829,-5.41998 -9.44131,-7.75647 -1.28281,-1.01849 -2.77127,-2.70135 -4.06964,-2.61572 -5.4032,0.35626 -5.50199,-4.18298 -4.93292,-6.62604 3.99685,-17.15985 8.41491,-34.24341 18.10189,-49.34271 0.9794,-1.52667 2.01236,-3.01892 3.27057,-4.90125 4.49069,3.61762 8.74515,7.04499 13.2688,10.70166 z"
   id="path12"
   style="opacity:0.6;stroke:#140000;stroke-width:3;stroke-dasharray:none;stroke-opacity:1" />
<path
   fill="#204d7a"
   opacity="1"
   stroke="none"
   d="m 220.03752,147.46408 c 4.79218,2.4112 9.25391,4.64871 13.7157,6.8862 -0.12933,0.4018 -0.2586,0.80359 -0.38788,1.20535 -1.90783,-0.34857 -3.85278,-0.56021 -5.71783,-1.06616 -31.72333,-8.60483 -63.84592,-14.88406 -96.8255,-15.22061 -11.60922,-0.11847 -23.25089,0.99081 -34.839881,1.98209 -3.64349,0.31164 -4.7878,-0.60199 -4.85137,-4.06021 -0.058,-3.15815 -0.57019,-6.30793 -0.85986,-9.23591 1.66895,-2.21902 3.69143,-4.48742 5.22066,-7.05011 1.82291,-3.05471 4.28626,-4.00244 7.749881,-4.31597 29.80701,-2.69822 57.88358,3.73614 84.88217,15.84127 10.6149,4.75931 21.0607,9.89573 31.91391,15.03406 z"
   id="path13"
   style="opacity:0.6;stroke:#140000;stroke-width:3;stroke-dasharray:none;stroke-opacity:1" />
<path
   fill="#1f4c79"
   opacity="1"
   stroke="none"
   d="m 71.393364,264.78494 c 1.30469,-1.26422 2.839415,-2.16565 3.175845,-3.39502 1.09302,-3.99417 4.01816,-4.47531 7.34702,-4.44827 14.19151,0.11524 33.987321,7.3685 45.954451,16.96909 -9.25482,14.56146 -16.25863,30.19104 -19.86834,47.5487 -2.58048,-1.28698 -4.36734,-2.31817 -2.47156,-5.60479 0.57849,-1.00293 -0.18335,-3.1836 -0.93002,-4.48017 -4.59119,-7.97229 -12.161381,-12.7547 -20.048121,-16.47064 -4.20404,-1.98084 -9.62665,-1.37543 -15.559915,-2.05957 -0.0339,-0.22632 -0.14337,-1.97382 -0.57864,-3.63599 -0.754944,-2.88318 -1.791016,-5.69262 -2.546082,-8.57574 -0.320068,-1.22229 -0.678131,-2.73694 -0.242614,-3.80097 1.643615,-4.01544 3.606136,-7.90033 5.767976,-12.04663 z"
   id="path14"
   style="opacity:0.6;stroke:#140000;stroke-width:3;stroke-dasharray:none;stroke-opacity:1" />
<path
   fill="#244d7c"
   opacity="1"
   stroke="none"
   d="m 692.30301,323.85696 c -10e-4,17.49866 -10e-4,34.2761 -10e-4,51.20192 -10.22413,2.04977 -18.26795,1.43623 -24.94398,-8.39488 -8.45621,-12.45296 -18.85822,-23.58442 -29.69525,-36.84493 0,16.17489 0,30.57556 0,45.48973 -7.05188,0 -13.18771,0 -19.98046,0 0,-26.40961 0,-53.14409 -9.9e-4,-79.88217 9.94004,-2.48631 17.58997,-0.54944 24.04437,8.64041 8.89311,12.66254 19.29642,24.26446 30.11108,37.62861 0,-16.37752 0,-31.12104 0,-46.47581 6.92088,0 13.21383,0 20.46757,0 0,9.3363 0,18.6262 -9.9e-4,28.63712 z"
   id="path15"
   style="opacity:0.6;stroke:#140000;stroke-width:4.32852;stroke-dasharray:none;stroke-opacity:1" />
<path
   fill="#244d7c"
   opacity="1"
   stroke="none"
   d="m 466.0465,345.78304 c -12.28582,9.33699 -26.25726,7.80619 -40.87351,7.83728 0,7.29196 0,14.33646 0,21.77513 -7.34825,0 -13.67973,0 -20.3668,0 0,-26.77084 0,-53.33994 0,-81.94479 16.95962,1.12572 34.26405,0.15675 50.49751,3.86979 21.94481,5.01966 27.18343,31.1965 10.7428,48.46259 m -14.89921,-31.21383 c -8.0087,-5.54885 -16.91884,-3.24262 -25.56678,-3.61416 0,9.10186 0,17.5103 0,26.10834 5.50828,0 10.29725,0.17702 15.06917,-0.0337 13.46705,-0.59443 18.27777,-9.90869 10.49761,-22.46045 z"
   id="path16"
   style="opacity:0.6;stroke:#140000;stroke-width:4.32852;stroke-dasharray:none;stroke-opacity:1" />
<path
   fill="#234d7b"
   opacity="1"
   stroke="none"
   d="m 849.99713,337.70141 c 5.67817,12.70756 11.11594,24.92511 16.99913,38.14345 -6.85031,0 -12.81531,0.47308 -18.62622,-0.26621 -1.93614,-0.24625 -4.53283,-3.36767 -5.01489,-5.57131 -2.04507,-9.34878 -7.75627,-12.0874 -16.56436,-10.74828 -2.57967,0.39206 -5.31487,0.33921 -7.9062,-0.025 -10.98018,-1.54332 -19.77285,0.1112 -22.18684,13.20158 -0.25613,1.38948 -3.28681,3.04297 -5.15269,3.21038 -4.98733,0.44744 -10.04117,0.15227 -15.8007,0.15227 0.57698,-1.92148 0.86657,-3.43317 1.46823,-4.80829 10.28501,-23.50763 20.69221,-46.96234 30.84793,-70.52547 1.86287,-4.32253 4.17977,-6.67207 9.13205,-5.90407 2.34374,0.36344 4.83582,0.34292 7.1839,-0.0134 4.87103,-0.73704 7.31405,1.3617 9.16234,5.78982 5.17157,12.38903 10.78105,24.59524 16.45832,37.36355 m -39.03143,1.49744 c -0.29811,1.36419 -0.59633,2.72841 -0.94247,4.31197 7.25734,0 14.13436,0 22.14198,0 -3.7687,-9.35637 -7.25532,-18.0127 -11.40623,-28.31841 -3.60408,8.92839 -6.45152,15.98249 -9.79328,24.00644 z"
   id="path17"
   style="opacity:0.6;stroke:#140000;stroke-width:4.32852;stroke-dasharray:none;stroke-opacity:1" />
<path
   fill="#234d7b"
   opacity="1"
   stroke="none"
   d="m 491.96342,339.76388 c 5.87031,-13.47079 11.66282,-26.38222 17.08039,-39.44899 1.8278,-4.40848 4.26929,-6.51946 9.17393,-5.81777 2.82325,0.40403 5.92952,-0.53218 8.5813,0.24746 2.53481,0.74519 5.78872,2.4112 6.76839,4.56372 11.12345,24.43893 21.8744,49.04745 32.69871,73.62217 0.26936,0.61151 0.23782,1.35547 0.48853,2.92775 -5.89961,0 -11.60645,0.46693 -17.16151,-0.24693 -2.01316,-0.25863 -4.81205,-3.08382 -5.28218,-5.17992 -2.14458,-9.56224 -7.76739,-12.3987 -17.08242,-11.22447 -6.37892,0.80395 -12.96458,-0.16476 -19.41509,0.27963 -2.06667,0.14225 -4.95522,1.79226 -5.83751,3.56422 -7.16013,14.38118 -7.04203,14.44002 -25.50691,12.1433 5.13968,-11.75742 10.2048,-23.34435 15.49437,-35.43017 m 24.73646,-11.96649 c -2.01416,5.05655 -4.02832,10.11308 -6.29468,15.80289 7.68246,0 14.47877,0 22.46296,0 -3.71956,-9.46255 -7.15701,-18.20739 -11.15171,-28.36997 -1.98283,4.93167 -3.30995,8.23265 -5.01657,12.56708 z"
   id="path18"
   style="opacity:0.6;stroke:#140000;stroke-width:4.32852;stroke-dasharray:none;stroke-opacity:1" />
<path
   fill="#264f7d"
   opacity="1"
   stroke="none"
   d="m 1033.2435,331.91245 c -8.2018,-14.64214 -3.3699,-29.31899 11.5943,-35.33315 14.6196,-5.87554 29.2064,-3.84477 43.585,1.34871 3.2584,1.17705 4.4943,3.09897 2.8094,6.63518 -1.6218,3.40332 -2.7202,7.05579 -3.8939,10.18556 -7.4508,-1.73143 -14.3302,-3.76728 -21.3563,-4.8503 -8.4558,-1.30317 -15.4673,1.63923 -15.853,6.35663 -0.7143,8.73563 6.8098,8.57991 12.2221,10.2438 5.4921,1.68844 11.2448,2.52585 16.7462,4.18963 11.1661,3.37701 16.6245,9.84082 17.1027,19.64789 0.4973,10.20345 -4.8659,19.21108 -14.9274,23.2503 -18.2071,7.30924 -35.6634,4.29444 -53.3795,-4.90455 2.1518,-5.35409 4.1462,-10.31748 5.9951,-14.91802 6.9375,2.41682 13.2694,5.28083 19.9103,6.71514 4.7805,1.03254 10.1673,0.968 14.9082,-0.17076 2.7952,-0.6715 6.1878,-4.1043 6.7833,-6.84468 0.3986,-1.83466 -3.2067,-5.83125 -5.782,-6.76887 -6.719,-2.44599 -14.0776,-3.1571 -20.7586,-5.67898 -5.4446,-2.05508 -10.2785,-5.72744 -15.7059,-9.10353 z"
   id="path19"
   style="opacity:0.6;stroke:#140000;stroke-width:4.32852;stroke-dasharray:none;stroke-opacity:1" />
<path
   fill="#264f7d"
   opacity="1"
   stroke="none"
   d="m 387.97734,339.84048 c 6.97684,14.42868 1.92298,28.6195 -12.54367,34.08888 -18.02325,6.81415 -35.27019,3.43407 -52.48786,-5.44076 2.22915,-5.34011 4.2184,-10.10534 6.18364,-14.81317 6.67151,2.32807 13.01301,4.96181 19.59393,6.67703 3.84937,1.00322 8.11932,0.97742 12.13008,0.62261 4.58257,-0.40546 10.32463,-1.66291 9.6099,-7.32104 -0.38339,-3.03522 -4.91553,-6.64883 -8.35599,-7.9719 -7.78902,-2.99551 -16.34162,-4.03474 -24.07725,-7.13373 -14.04477,-5.62674 -18.05665,-22.22637 -8.63177,-34.00133 2.05287,-2.56469 4.66065,-5.10059 7.56664,-6.49885 17.07044,-8.21419 33.82653,-5.87371 51.01235,1.71168 -2.0178,5.55254 -3.77464,10.38697 -5.32922,14.66488 -8.11489,-1.73707 -15.4888,-3.66434 -22.9845,-4.75433 -3.15471,-0.45888 -6.89999,0.17288 -9.75335,1.57635 -2.17404,1.06953 -4.61164,4.1236 -4.63676,6.32097 -0.0241,2.12798 2.45113,5.36955 4.58739,6.22323 5.2997,2.11802 11.00906,3.24939 16.59695,4.59852 7.99903,1.93116 15.93663,3.89657 21.51949,11.45096 z"
   id="path20"
   style="opacity:0.6;stroke:#140000;stroke-width:4.32852;stroke-dasharray:none;stroke-opacity:1" />
<path
   fill="#244d7c"
   opacity="1"
   stroke="none"
   d="m 870.7804,326.50037 c 4.77162,-18.92301 17.04932,-29.28287 35.09596,-32.55648 16.34218,-2.96449 30.87419,0.81635 42.35445,14.84118 -4.42001,3.84046 -8.49921,7.38487 -12.52963,10.88683 -15.30782,-11.90856 -28.45067,-12.31312 -38.53888,-1.39971 -8.51002,9.20624 -8.43297,24.8538 0.16868,34.20583 9.5301,10.36143 23.4228,9.92352 38.18507,-1.46107 3.91877,3.66162 7.88844,7.37089 11.78527,11.01198 -8.78127,14.02066 -30.78488,19.46794 -49.57038,12.6423 -19.95075,-7.24917 -30.34757,-25.51541 -26.95054,-48.17086 z"
   id="path21"
   style="opacity:0.6;stroke:#140000;stroke-width:4.32852;stroke-dasharray:none;stroke-opacity:1" />
<path
   fill="#234f7b"
   opacity="1"
   stroke="none"
   d="m 214.20641,230.31546 c -0.94153,-0.39981 -1.54199,-0.65982 -2.1424,-0.91983 -0.0316,-0.33792 -0.0632,-0.67584 -0.0949,-1.01376 3.792,-0.49518 7.57672,-1.05616 11.37726,-1.47406 16.01349,-1.7609 31.87354,-0.1016 47.73767,2.02356 18.56543,2.48706 37.16669,2.15738 55.75757,0.093 1.88348,-0.20913 3.78491,-0.25704 6.21539,0.45154 -4.80481,3.10895 -9.7514,6.02527 -14.35125,9.41257 -2.12726,1.56647 -3.57788,4.05182 -4.95099,6.65695 -33.96655,3.07782 -66.82453,-4.46707 -99.5484,-15.23001 z"
   id="path22"
   style="opacity:0.6;stroke:#140000;stroke-width:3;stroke-dasharray:none;stroke-opacity:1" />
<path
   fill="#264f7d"
   opacity="1"
   stroke="none"
   d="m 751.46467,294.53261 c 7.91456,9.8e-4 15.10986,9.8e-4 22.96237,9.8e-4 0,5.30224 0,10.38408 0,16.01331 -13.62676,0 -27.22091,0 -41.31977,0 0,6.5855 0,12.64131 0,19.62814 12.39832,0 24.50736,0 36.9432,0 0,5.64542 0,10.3682 0,15.95676 -12.39905,0 -24.54214,0 -37.27578,0 0,10.10729 0,19.3681 0,29.13429 -6.92549,0 -13.23794,0 -19.97108,0 0,-26.62438 0,-53.15315 0,-80.73488 12.69005,0 25.31579,0 38.66106,9.8e-4 z"
   id="path23"
   style="opacity:0.6;stroke:#140000;stroke-width:4.32852;stroke-dasharray:none;stroke-opacity:1" />
<path
   fill="#264f7d"
   opacity="1"
   stroke="none"
   d="m 976.99057,322.4842 c 0,-4.02371 0,-7.33729 0,-11.36068 -8.88953,0 -17.18572,0 -25.97696,0 0,-5.60986 0,-10.51968 0,-16.01779 23.61827,0 47.24952,0 71.57979,0 0,4.76611 0,9.89926 0,15.749 -7.5495,0 -15.5866,0 -24.55551,0 0,21.85107 0,43.03575 0,64.59268 -7.34103,0 -13.74383,0 -21.05468,0 0,-17.38983 0,-34.82147 0,-52.96321 z"
   id="path24"
   style="opacity:0.6;stroke:#140000;stroke-width:4.32852;stroke-dasharray:none;stroke-opacity:1" />
<path
   fill="#264f7d"
   opacity="1"
   stroke="none"
   d="m 589.56637,294.61865 c 2.71485,0.13967 4.79663,0.27738 7.18985,0.43575 0,26.89246 0,53.23768 0,80.1785 -6.17208,0 -12.48935,0 -19.3591,0 0,-26.54814 0,-53.25012 0,-80.61611 3.92153,0 7.72884,0 12.16925,0.001 z"
   id="path25"
   style="opacity:0.6;stroke:#140000;stroke-width:4.32852;stroke-dasharray:none;stroke-opacity:1" />
<path
   fill="#264f7d"
   opacity="1"
   stroke="none"
   d="m 103.21275,20.087011 c -5.689511,-2.80149 -11.021911,-5.45813 -16.354291,-8.11475 0.0709,-0.56412 0.14178,-1.1282 0.21264,-1.69229 8.56576,0 17.131551,-0.004 25.697291,0.0116 0.48642,9.1e-4 1.13342,0.41882 1.43518,0.22384 7.60763,-4.9147595 13.87997,2.15378 20.92898,2.68305 4.00626,0.30078 7.67423,5.10681 12.43717,8.56918 -15.75223,4.581971 -29.94156,3.50955 -44.35697,-1.68063 z"
   id="path26"
   style="opacity:0.6;stroke:#140000;stroke-width:3;stroke-dasharray:none;stroke-opacity:1" />
<path
   fill="#2c5683"
   opacity="1"
   stroke="none"
   d="m 396.77397,186.7995 c -0.3728,-0.86752 -0.85278,-1.85001 -0.64496,-2.02762 7.09528,-6.06247 13.47901,-13.18634 23.43317,-16.22906 -0.44128,1.3291 -0.69855,2.104 -1.04974,3.1618 1.62921,0 3.05755,0 4.94677,0 -1.09088,4.04147 -1.9151,7.16995 4.63526,5.93472 4.77991,-0.90136 5.85675,1.91318 3.26367,6.33567 -2.84705,4.8558 -5.78082,9.66076 -8.67682,14.48788 -0.36542,-0.45611 -0.73083,-0.91223 -1.09625,-1.36838 -2.5296,-0.73544 -5.17853,-1.21231 -7.54413,-2.30337 -1.41864,-0.65433 -2.78888,-2.06989 -3.50085,-3.48535 -2.93409,-5.83368 -3.63886,-5.98816 -8.32428,-1.06339 -1.74256,-1.06128 -3.48542,-2.12195 -5.44184,-3.4429 z"
   id="path27"
   style="opacity:0.6;stroke:#140000;stroke-width:3;stroke-dasharray:none;stroke-opacity:1" />
<path
   fill="#2c5683"
   opacity="1"
   stroke="none"
   d="m 181.11965,218.08899 c -11.28132,-4.46228 -22.19712,-8.79791 -33.11295,-13.13355 0.17349,-0.56744 0.34699,-1.13485 0.52048,-1.7023 21.93359,5.26392 43.86722,10.52781 66.376,15.92975 -11.71344,3.72568 -22.71896,5.66281 -33.78353,-1.0939 z"
   id="path28"
   style="opacity:0.6;stroke:#140000;stroke-width:3;stroke-dasharray:none;stroke-opacity:1" />
<path
   fill="#3c6594"
   opacity="1"
   stroke="none"
   d="m 364.41258,212.84891 c 0.97864,-4.30405 4.01136,-6.01023 7.48395,-6.65613 1.44843,-0.26935 3.48145,0.67386 4.65717,1.72638 0.54504,0.48788 0.15008,3.04752 -0.64356,3.81461 -2.24371,2.16857 -4.68194,4.40267 -7.47015,5.67855 -4.17688,1.91135 -5.25427,0.64002 -4.02741,-4.56341 z"
   id="path29"
   style="opacity:0.6;stroke:#140000;stroke-width:3;stroke-dasharray:none;stroke-opacity:1" />
<path
   fill="#3c6594"
   opacity="1"
   stroke="none"
   d="m 447.64684,163.79135 c 7.32653,0.30298 10.15832,3.51584 8.90686,10.44715 -1.40369,-0.59562 -2.65454,-1.18323 -3.9455,-1.663 -3.26886,-1.21487 -6.638,-2.2016 -9.7987,-3.64749 -1.44898,-0.66284 -2.50263,-2.18991 -4.73652,-4.24655 3.99744,-0.37927 6.58936,-0.62519 9.57386,-0.89011 z"
   id="path30"
   style="opacity:0.6;stroke:#140000;stroke-width:3;stroke-dasharray:none;stroke-opacity:1" />
<path
   fill="#3c6594"
   opacity="1"
   stroke="none"
   d="m 80.175439,186.66934 c 0.0446,1.14685 -0.276,2.18213 -0.59994,3.54883 -2.24375,2.13648 -4.48416,3.94147 -7.036725,5.99793 -2.16696,-2.46405 -4.674312,-5.31516 -7.181667,-8.16629 0.230713,-0.49735 0.461426,-0.99473 0.692139,-1.49207 4.586978,0 9.173983,0 14.126193,0.1116 z"
   id="path31"
   style="opacity:0.6;stroke:#140000;stroke-width:3;stroke-dasharray:none;stroke-opacity:1" />
<path
   fill="#1f4c79"
   opacity="1"
   stroke="none"
   d="m 18.020285,66.193272 c 0.04953,-0.0404 -0.04953,0.0404 0,0 z"
   id="path32"
   style="opacity:0.6;stroke:#140000;stroke-width:3;stroke-dasharray:none;stroke-opacity:1" />
<path
   fill="#feffff"
   opacity="1"
   stroke="none"
   d="m 14.697745,45.420072 c 1.335449,-0.36196 2.415985,-0.36196 3.496521,-0.36196 0.172699,0.32415 0.345428,0.64831 0.518127,0.97244 -1.180694,0.97415 -2.361389,1.9483 -4.269562,3.5227 0,-1.9725 0,-2.87185 0.254914,-4.13318 z"
   id="path33"
   style="opacity:0.6;stroke:#140000;stroke-width:3;stroke-dasharray:none;stroke-opacity:1" />
<path
   fill="#feffff"
   opacity="1"
   stroke="none"
   d="m 41.860648,19.557401 c 0.05179,0.22733 -0.169526,0.68961 -0.587037,0.94791 -0.02609,-0.37366 0.143952,-0.54327 0.587037,-0.94791 z"
   id="path34"
   style="opacity:0.6;stroke:#140000;stroke-width:3;stroke-dasharray:none;stroke-opacity:1" />



</svg>
